<?xml version="1.0" encoding="UTF-8"?>
<svg id="Layer_1" xmlns="http://www.w3.org/2000/svg" version="1.1" viewBox="0 0 848.6 579.2">
  <!-- Generator: Adobe Illustrator 29.1.0, SVG Export Plug-In . SVG Version: 2.1.0 Build 142)  -->
  <defs>
    <style>
      .st0, .st1, .st2, .st3, .st4, .st5, .st6, .st7, .st8, .st9, .st10, .st11, .st12, .st13, .st14, .st15, .st16 {
        isolation: isolate;
      }

      .st0, .st2, .st4, .st6, .st8, .st9, .st10, .st13 {
        font-family: Arial-BoldMT, Arial;
        font-weight: 700;
      }

      .st0, .st17, .st7 {
        fill: #9b59b6;
      }

      .st0, .st8 {
        font-size: 12px;
      }

      .st1, .st2 {
        font-size: 14px;
      }

      .st1, .st5, .st18, .st9 {
        fill: #2c3e50;
      }

      .st1, .st5, .st12 {
        font-family: ArialMT, Arial;
      }

      .st2, .st19, .st8, .st12 {
        fill: #fff;
      }

      .st20 {
        fill: #f1f1f1;
      }

      .st20, .st19 {
        stroke: #ddd;
      }

      .st19, .st21, .st22, .st23, .st24, .st11, .st14, .st15, .st16 {
        stroke-width: 2px;
      }

      .st25, .st10, .st15 {
        fill: #2ecc71;
      }

      .st21, .st22, .st23, .st24 {
        fill: none;
      }

      .st21, .st16 {
        stroke: #3498db;
      }

      .st4, .st6, .st10, .st13 {
        font-size: 16px;
      }

      .st4, .st11, .st26 {
        fill: #4b6cb7;
      }

      .st22, .st11 {
        stroke: #4b6cb7;
      }

      .st23, .st15 {
        stroke: #2ecc71;
      }

      .st5, .st12 {
        font-size: 10px;
      }

      .st6, .st27, .st14 {
        fill: #e74c3c;
      }

      .st24, .st14 {
        stroke: #e74c3c;
      }

      .st7 {
        opacity: .1;
        stroke: #9b59b6;
      }

      .st28 {
        fill: #f8f9fa;
      }

      .st9 {
        font-size: 24px;
      }

      .st11, .st14, .st15, .st16 {
        opacity: .2;
      }

      .st29, .st13, .st16 {
        fill: #3498db;
      }
    </style>
  </defs>
  <rect class="st28" x="0" width="848.6" height="579.2" rx="10" ry="10"/>
  <text class="st9" transform="translate(203.1 40)"><tspan x="0" y="0">Anatomy of an Effective AI Prompt</tspan></text>
  <rect class="st19" x="100" y="56.8" width="600" height="442.9" rx="8" ry="8"/>
  <g>
    <rect class="st11" x="120" y="76.8" width="560" height="80" rx="5" ry="5"/>
    <text class="st4" transform="translate(140 106.8)"><tspan x="0" y="0">1. Role Specification</tspan></text>
    <text class="st1" transform="translate(140 136.8)"><tspan x="0" y="0">&quot;You are an R programming expert specialized in data visualization and ggplot2.&quot;</tspan></text>
    <rect class="st26" x="12.5" y="106.8" width="80.5" height="25" rx="12" ry="12"/>
    <text class="st8" transform="translate(39.7 123.2)"><tspan x="0" y="0">WHO</tspan></text>
    <line class="st22" x1="93" y1="119.3" x2="119" y2="119.3"/>
  </g>
  <g>
    <rect class="st16" x="120" y="166.8" width="560" height="80" rx="5" ry="5"/>
    <text class="st13" transform="translate(140 196.8)"><tspan x="0" y="0">2. Task Definition</tspan></text>
    <text class="st1" transform="translate(140 226.8)"><tspan x="0" y="0">&quot;Debug this ggplot2 code and identify why the legend colors aren&apos;t matching the data.&quot;</tspan></text>
    <rect class="st29" x="12.9" y="196.8" width="80.1" height="25" rx="12" ry="12"/>
    <text class="st8" transform="translate(36 211.8)"><tspan x="0" y="0">WHAT</tspan></text>
    <line class="st21" x1="93" y1="209.3" x2="119" y2="209.3"/>
  </g>
  <g>
    <rect class="st15" x="120" y="256.8" width="560" height="122.2" rx="5" ry="5"/>
    <text class="st10" transform="translate(140 286.8)"><tspan x="0" y="0">3. Output Format</tspan></text>
    <text class="st1" transform="translate(140 316.8)"><tspan x="0" y="0">&quot;Provide your response in these steps:</tspan></text>
    <text class="st1" transform="translate(140 341.8)"><tspan x="0" y="0">1) Identify what&apos;s wrong with the code, 2) Explain the underlying concept I&apos;m</tspan></text>
    <text class="st1" transform="translate(140 366.8)"><tspan x="0" y="0">misunderstanding, 3) Show a working solution with comments.&quot;</tspan></text>
    <rect class="st25" x="12.5" y="286.8" width="80.5" height="25" rx="12" ry="12"/>
    <text class="st8" transform="translate(38.8 302.3)"><tspan x="0" y="0">HOW</tspan></text>
    <line class="st23" x1="93" y1="299.3" x2="119" y2="299.3"/>
  </g>
  <g>
    <rect class="st14" x="119.6" y="388.2" width="560" height="99.3" rx="5" ry="5"/>
    <text class="st6" transform="translate(139.6 418.2)"><tspan x="0" y="0">4. Context</tspan></text>
    <text class="st1" transform="translate(139.6 448.2)"><tspan x="0" y="0">&quot;This is for a data visualization workshop with beginner R users who have just</tspan></text>
    <text class="st1" transform="translate(139.6 473.2)"><tspan x="0" y="0">learned the basics of ggplot2. They&apos;re using R version 4.5.0 and ggplot2 version 3.5.2.</tspan></text>
    <rect class="st27" x="12.5" y="415.9" width="82.4" height="25" rx="12" ry="12"/>
    <text class="st8" transform="translate(17.2 432.2)"><tspan x="0" y="0">WHY/WHERE</tspan></text>
    <line class="st24" x1="94.9" y1="428.4" x2="118.6" y2="428.4"/>
  </g>
  <g>
    <rect class="st17" x="12.5" y="510.8" width="82.4" height="50" rx="8" ry="8"/>
    <text class="st2" transform="translate(27 533.8)"><tspan x="0" y="0">searcher</tspan></text>
    <text class="st12" transform="translate(31.6 548.4)"><tspan x="0" y="0">R package</tspan></text>
  </g>
  <rect class="st20" x="100" y="510.8" width="600" height="50" rx="5" ry="5"/>
  <g class="st3">
    <path class="st18" d="M115,534v-.7c-.7.6-1.5.9-2.3.9s-1.1-.1-1.4-.4-.5-.7-.5-1.1.2-.9.7-1.2,1.1-.5,1.9-.5.5,0,.7,0,.6,0,.9.1v-.8c0-.3-.1-.5-.4-.7s-.6-.3-1.1-.3-.9.1-1.6.3c-.1,0-.2,0-.2,0,0,0-.1,0-.2,0s0-.1,0-.2,0-.1,0-.2c0,0,.3-.1.7-.2.6-.2,1.1-.2,1.4-.2.6,0,1.1.2,1.5.5s.5.7.5,1v3.3h.7c.1,0,.2,0,.3,0s0,.1,0,.2,0,.1,0,.2-.1,0-.3,0h-1.2ZM115,531.5c-.2,0-.5-.1-.7-.1s-.5,0-.8,0c-.7,0-1.3.2-1.7.5-.3.2-.5.5-.5.8s.1.5.3.8.6.3,1,.3.8,0,1.2-.3.7-.4,1.1-.8v-1.1Z"/>
    <path class="st18" d="M122.4,529.2c0-.1,0-.2,0-.2s.1,0,.2,0,.1,0,.2,0,0,.1,0,.3v.8c0,.1,0,.2,0,.3s-.1,0-.2,0-.1,0-.2,0,0-.1,0-.2c0-.2-.1-.4-.4-.6-.3-.2-.7-.3-1.3-.3s-1,.1-1.3.3c-.2.2-.3.4-.3.6s.1.4.4.6c.2.1.5.2,1.1.3.7,0,1.2.2,1.4.3.4.1.7.3.8.6s.3.5.3.8c0,.4-.2.8-.6,1.1s-1,.5-1.8.5-1.4-.2-1.9-.6c0,.1,0,.2,0,.3s0,0,0,0,0,0-.1,0-.1,0-.2,0,0-.1,0-.3v-1c0-.1,0-.2,0-.3s.1,0,.2,0,.1,0,.2,0,0,.1,0,.2c0,.2,0,.3.1.5.1.2.4.3.7.5s.7.2,1.1.2c.6,0,1.1-.1,1.4-.4s.5-.5.5-.8-.2-.5-.5-.7c-.3-.2-.8-.3-1.4-.4s-1-.1-1.3-.2-.5-.3-.6-.5-.2-.4-.2-.7c0-.4.2-.8.6-1s.9-.4,1.5-.4,1.2.2,1.7.5Z"/>
    <path class="st18" d="M127,531.8v2.2h-1.2c-.1,0-.2,0-.3,0s0-.1,0-.2,0-.1,0-.2.1,0,.3,0h.7v-6.4h-.7c-.1,0-.2,0-.3,0s0-.1,0-.2,0-.1,0-.2.1,0,.3,0h1.2v4.5l2.1-1.8h-.3c-.1,0-.2,0-.3,0s0-.1,0-.2,0-.1,0-.2.1,0,.3,0h1.6c.1,0,.2,0,.3,0s0,.1,0,.2,0,.1,0,.2-.1,0-.3,0h-.6l-1.9,1.6,2.4,2.5h.6c.1,0,.2,0,.3,0s0,.1,0,.2,0,.1,0,.2-.1,0-.3,0h-1.6c-.1,0-.2,0-.3,0s0-.1,0-.2,0-.1,0-.2.1,0,.3,0h.3l-2.1-2.2-.6.5Z"/>
    <path class="st18" d="M138.5,537.2h-6.5c-.1,0-.2,0-.3,0s0-.1,0-.2,0-.1,0-.2.1,0,.3,0h6.5c.1,0,.2,0,.3,0s0,.1,0,.2,0,.1,0,.2-.1,0-.3,0Z"/>
    <path class="st18" d="M144.5,529.4v-.2c0-.1,0-.2,0-.3s.1,0,.2,0,.1,0,.2,0,0,.1,0,.3v1.1c0,.1,0,.2,0,.3s-.1,0-.2,0-.1,0-.2,0,0-.1,0-.2c0-.3-.2-.5-.5-.8s-.8-.4-1.4-.4-1.3.2-1.7.7-.6,1-.6,1.6.2,1.2.6,1.6,1,.6,1.6.6.8,0,1.2-.2.8-.4,1.1-.7c0,0,.2-.1.2-.1s.1,0,.2,0,0,.1,0,.2c0,.2-.2.4-.6.6-.6.4-1.3.6-2.1.6s-1.4-.3-2-.8-.8-1.1-.8-1.9.3-1.5.8-2,1.2-.8,2-.8,1.4.2,1.9.7Z"/>
    <path class="st18" d="M148,526.6v3c.3-.3.6-.6.9-.7s.6-.2,1-.2.7,0,1,.2.5.3.7.6.3.6.3.9v3.1h.6c.1,0,.2,0,.3,0s0,.1,0,.2,0,.1,0,.2-.1,0-.3,0h-1.6c-.1,0-.2,0-.3,0s0-.1,0-.2,0-.1,0-.2.1,0,.3,0h.6v-3c0-.4-.1-.7-.4-.9s-.6-.4-1.1-.4-.7,0-.9.3c-.2.1-.5.4-.9.9v3.1h.6c.1,0,.2,0,.3,0s0,.1,0,.2,0,.1,0,.2-.1,0-.3,0h-1.6c-.1,0-.2,0-.3,0s0-.1,0-.2,0-.1,0-.2.1,0,.3,0h.6v-6.4h-.7c-.1,0-.2,0-.3,0s0-.1,0-.2,0-.1,0-.2.1,0,.3,0h1.2Z"/>
    <path class="st18" d="M158.2,534v-.7c-.7.6-1.5.9-2.3.9s-1.1-.1-1.4-.4-.5-.7-.5-1.1.2-.9.7-1.2,1.1-.5,1.9-.5.5,0,.7,0,.6,0,.9.1v-.8c0-.3-.1-.5-.4-.7s-.6-.3-1.1-.3-.9.1-1.6.3c-.1,0-.2,0-.2,0,0,0-.1,0-.2,0s0-.1,0-.2,0-.1,0-.2c0,0,.3-.1.7-.2.6-.2,1.1-.2,1.4-.2.6,0,1.1.2,1.5.5s.5.7.5,1v3.3h.7c.1,0,.2,0,.3,0s0,.1,0,.2,0,.1,0,.2-.1,0-.3,0h-1.2ZM158.2,531.5c-.2,0-.5-.1-.7-.1s-.5,0-.8,0c-.7,0-1.3.2-1.7.5-.3.2-.5.5-.5.8s.1.5.3.8.6.3,1,.3.8,0,1.2-.3.7-.4,1.1-.8v-1.1Z"/>
    <path class="st18" d="M163,528.9h2.7c.1,0,.2,0,.3,0s0,.1,0,.2,0,.1,0,.2-.1,0-.3,0h-2.7v3.3c0,.3.1.5.3.7s.6.3,1,.3.7,0,1.1-.1.7-.2.9-.3c0,0,.1,0,.2,0s.1,0,.2,0,0,.1,0,.2,0,.1,0,.2c-.1.1-.4.3-.9.4s-.9.2-1.4.2-1-.1-1.4-.4-.5-.6-.5-1.1v-3.3h-.9c-.1,0-.2,0-.3,0s0-.1,0-.2,0-.1,0-.2.1,0,.3,0h.9v-1.5c0-.1,0-.2,0-.3s.1,0,.2,0,.1,0,.2,0,0,.1,0,.3v1.5Z"/>
    <path class="st18" d="M172.9,529.8v-.9h1.2c.1,0,.2,0,.3,0s0,.1,0,.2,0,.1,0,.2-.1,0-.3,0h-.7v4.9c0,.3,0,.6-.2.9s-.2.3-.5.5-.4.3-.6.4-.4.1-.7.1h-1.4c-.1,0-.2,0-.3,0s0-.1,0-.2,0-.1,0-.2.1,0,.3,0h1.4c.3,0,.5,0,.8-.2s.4-.4.6-.7c0-.2.1-.4.1-.6v-1.5c-.5.7-1.2,1.1-2,1.1s-1.3-.3-1.7-.8-.7-1.1-.7-1.8.2-1.3.7-1.8,1.1-.8,1.7-.8,1.5.4,2,1.1ZM172.9,531.3c0-.6-.2-1.1-.6-1.5s-.9-.6-1.4-.6-1,.2-1.4.6-.6.9-.6,1.5.2,1.1.6,1.5.9.6,1.4.6,1-.2,1.4-.6.6-.9.6-1.5Z"/>
    <path class="st18" d="M176.6,528.9v.9c.3-.4.6-.6.9-.8s.7-.3,1.2-.3.9.1,1.3.3.7.5,1,.9.3.8.3,1.3c0,.7-.3,1.3-.8,1.8s-1.1.8-1.9.8-1.6-.4-2.1-1.1v3h1.2c.1,0,.2,0,.3,0s0,.1,0,.2,0,.1,0,.2-.1,0-.3,0h-2.3c-.1,0-.2,0-.3,0s0-.1,0-.2,0-.1,0-.2.1,0,.3,0h.7v-6.3h-.7c-.1,0-.2,0-.3,0s0-.1,0-.2,0-.1,0-.2.1,0,.3,0h1.2ZM180.8,531.3c0-.6-.2-1.1-.6-1.5s-.9-.6-1.5-.6-1.1.2-1.5.6-.6.9-.6,1.5.2,1.1.6,1.5.9.6,1.5.6,1.1-.2,1.5-.6.6-.9.6-1.5Z"/>
    <path class="st18" d="M184.6,528.9h2.7c.1,0,.2,0,.3,0s0,.1,0,.2,0,.1,0,.2-.1,0-.3,0h-2.7v3.3c0,.3.1.5.3.7s.6.3,1,.3.7,0,1.1-.1.7-.2.9-.3c0,0,.1,0,.2,0s.1,0,.2,0,0,.1,0,.2,0,.1,0,.2c-.1.1-.4.3-.9.4s-.9.2-1.4.2-1-.1-1.4-.4-.5-.6-.5-1.1v-3.3h-.9c-.1,0-.2,0-.3,0s0-.1,0-.2,0-.1,0-.2.1,0,.3,0h.9v-1.5c0-.1,0-.2,0-.3s.1,0,.2,0,.1,0,.2,0,0,.1,0,.3v1.5Z"/>
    <path class="st18" d="M192.8,531c0-.4,0-.9.2-1.4s.3-1.1.7-1.7.6-1.1.7-1.2c0,0,0,0,.2,0s.1,0,.2,0,0,.1,0,.2,0,0,0,.1c-.4.8-.7,1.5-.9,2.1s-.3,1.3-.3,1.9,0,1.3.3,1.9.5,1.4.9,2.1c0,0,0,0,0,.1,0,0,0,.1,0,.2s-.1,0-.2,0-.1,0-.2,0c-.1-.1-.4-.5-.7-1.2s-.6-1.2-.7-1.7-.2-1-.2-1.5Z"/>
    <path class="st18" d="M198,526.7h1.6l-.4,2.8c0,.1,0,.3-.1.3s-.1,0-.2,0-.2,0-.2,0-.1-.2-.1-.3l-.4-2.8ZM200.5,526.7h1.6l-.4,2.8c0,.1,0,.3-.1.3s-.1,0-.2,0-.2,0-.2,0-.1-.2-.1-.3l-.4-2.8Z"/>
    <path class="st18" d="M206,530.6v2.8h1.7c.1,0,.2,0,.3,0s0,.1,0,.2,0,.1,0,.2-.1,0-.3,0h-2.8c-.1,0-.2,0-.3,0s0-.1,0-.2,0-.1,0-.2.1,0,.3,0h.7v-5.9h-.7c-.1,0-.2,0-.3,0s0-.1,0-.2,0-.1,0-.2c0,0,.1,0,.2,0h5.4v1.7c0,.1,0,.2,0,.3s-.1,0-.2,0-.1,0-.2,0,0-.1,0-.3v-1.2h-3.8v2.6h1.8v-.6c0-.1,0-.2,0-.3s.1,0,.2,0,.1,0,.2,0,0,.1,0,.3v1.6c0,.1,0,.2,0,.3s-.1,0-.2,0-.1,0-.2,0,0-.1,0-.3v-.6h-1.8Z"/>
    <path class="st18" d="M214.7,528.9v4.6h1.9c.1,0,.2,0,.3,0s0,.1,0,.2,0,.1,0,.2-.1,0-.3,0h-4.4c-.1,0-.2,0-.3,0s0-.1,0-.2,0-.1,0-.2.1,0,.3,0h1.9v-4.1h-1.4c-.1,0-.2,0-.3,0s0-.1,0-.2,0-.1,0-.2.1,0,.3,0h1.9ZM214.7,526.4v1.3h-.7v-1.3h.7Z"/>
    <path class="st18" d="M222,531.3l2.3,2.2c.1,0,.2,0,.3,0s0,0,.1,0,0,0,0,.1,0,.1,0,.2-.1,0-.3,0h-1.6c-.1,0-.2,0-.3,0s0-.1,0-.2,0-.1,0-.2.1,0,.3,0h.8l-1.9-1.8-1.9,1.8h.8c.1,0,.2,0,.3,0s0,.1,0,.2,0,.1,0,.2-.1,0-.3,0h-1.6c-.1,0-.2,0-.3,0s0-.1,0-.2,0,0,0-.1,0,0,0,0,.1,0,.3,0l2.3-2.2-2-1.9c-.1,0-.2,0-.3,0s0,0,0,0,0,0,0-.1,0-.1,0-.2.1,0,.3,0h1.3c.1,0,.2,0,.3,0s0,.1,0,.2,0,.1,0,.2-.1,0-.3,0h-.6l1.7,1.6,1.7-1.6h-.6c-.1,0-.2,0-.3,0s0-.1,0-.2,0-.1,0-.2.1,0,.3,0h1.3c.1,0,.2,0,.3,0s0,.1,0,.2,0,0,0,.1,0,0,0,0-.1,0-.3,0l-2,1.9Z"/>
    <path class="st18" d="M235,528.9h2.7c.1,0,.2,0,.3,0s0,.1,0,.2,0,.1,0,.2-.1,0-.3,0h-2.7v3.3c0,.3.1.5.3.7s.6.3,1,.3.7,0,1.1-.1.7-.2.9-.3c0,0,.1,0,.2,0s.1,0,.2,0,0,.1,0,.2,0,.1,0,.2c-.1.1-.4.3-.9.4s-.9.2-1.4.2-1-.1-1.4-.4-.5-.6-.5-1.1v-3.3h-.9c-.1,0-.2,0-.3,0s0-.1,0-.2,0-.1,0-.2.1,0,.3,0h.9v-1.5c0-.1,0-.2,0-.3s.1,0,.2,0,.1,0,.2,0,0,.1,0,.3v1.5Z"/>
    <path class="st18" d="M241.6,526.6v3c.3-.3.6-.6.9-.7s.6-.2,1-.2.7,0,1,.2.5.3.7.6.3.6.3.9v3.1h.6c.1,0,.2,0,.3,0s0,.1,0,.2,0,.1,0,.2-.1,0-.3,0h-1.6c-.1,0-.2,0-.3,0s0-.1,0-.2,0-.1,0-.2.1,0,.3,0h.6v-3c0-.4-.1-.7-.4-.9s-.6-.4-1.1-.4-.7,0-.9.3c-.2.1-.5.4-.9.9v3.1h.6c.1,0,.2,0,.3,0s0,.1,0,.2,0,.1,0,.2-.1,0-.3,0h-1.6c-.1,0-.2,0-.3,0s0-.1,0-.2,0-.1,0-.2.1,0,.3,0h.6v-6.4h-.7c-.1,0-.2,0-.3,0s0-.1,0-.2,0-.1,0-.2.1,0,.3,0h1.2Z"/>
    <path class="st18" d="M250.7,528.9v4.6h1.9c.1,0,.2,0,.3,0s0,.1,0,.2,0,.1,0,.2-.1,0-.3,0h-4.4c-.1,0-.2,0-.3,0s0-.1,0-.2,0-.1,0-.2.1,0,.3,0h1.9v-4.1h-1.4c-.1,0-.2,0-.3,0s0-.1,0-.2,0-.1,0-.2.1,0,.3,0h1.9ZM250.7,526.4v1.3h-.7v-1.3h.7Z"/>
    <path class="st18" d="M259.2,529.2c0-.1,0-.2,0-.2s.1,0,.2,0,.1,0,.2,0,0,.1,0,.3v.8c0,.1,0,.2,0,.3s-.1,0-.2,0-.1,0-.2,0,0-.1,0-.2c0-.2-.1-.4-.4-.6-.3-.2-.7-.3-1.3-.3s-1,.1-1.3.3c-.2.2-.3.4-.3.6s.1.4.4.6c.2.1.5.2,1.1.3.7,0,1.2.2,1.4.3.4.1.7.3.8.6s.3.5.3.8c0,.4-.2.8-.6,1.1s-1,.5-1.8.5-1.4-.2-1.9-.6c0,.1,0,.2,0,.3s0,0,0,0,0,0-.1,0-.1,0-.2,0,0-.1,0-.3v-1c0-.1,0-.2,0-.3s.1,0,.2,0,.1,0,.2,0,0,.1,0,.2c0,.2,0,.3.1.5.1.2.4.3.7.5s.7.2,1.1.2c.6,0,1.1-.1,1.4-.4s.5-.5.5-.8-.2-.5-.5-.7c-.3-.2-.8-.3-1.4-.4s-1-.1-1.3-.2-.5-.3-.6-.5-.2-.4-.2-.7c0-.4.2-.8.6-1s.9-.4,1.5-.4,1.2.2,1.7.5Z"/>
    <path class="st18" d="M273.7,529.8v-.9h1.2c.1,0,.2,0,.3,0s0,.1,0,.2,0,.1,0,.2-.1,0-.3,0h-.7v4.9c0,.3,0,.6-.2.9s-.2.3-.5.5-.4.3-.6.4-.4.1-.7.1h-1.4c-.1,0-.2,0-.3,0s0-.1,0-.2,0-.1,0-.2.1,0,.3,0h1.4c.3,0,.5,0,.8-.2s.4-.4.6-.7c0-.2.1-.4.1-.6v-1.5c-.5.7-1.2,1.1-2,1.1s-1.3-.3-1.7-.8-.7-1.1-.7-1.8.2-1.3.7-1.8,1.1-.8,1.7-.8,1.5.4,2,1.1ZM273.7,531.3c0-.6-.2-1.1-.6-1.5s-.9-.6-1.4-.6-1,.2-1.4.6-.6.9-.6,1.5.2,1.1.6,1.5.9.6,1.4.6,1-.2,1.4-.6.6-.9.6-1.5Z"/>
    <path class="st18" d="M280.9,529.8v-.9h1.2c.1,0,.2,0,.3,0s0,.1,0,.2,0,.1,0,.2-.1,0-.3,0h-.7v4.9c0,.3,0,.6-.2.9s-.2.3-.5.5-.4.3-.6.4-.4.1-.7.1h-1.4c-.1,0-.2,0-.3,0s0-.1,0-.2,0-.1,0-.2.1,0,.3,0h1.4c.3,0,.5,0,.8-.2s.4-.4.6-.7c0-.2.1-.4.1-.6v-1.5c-.5.7-1.2,1.1-2,1.1s-1.3-.3-1.7-.8-.7-1.1-.7-1.8.2-1.3.7-1.8,1.1-.8,1.7-.8,1.5.4,2,1.1ZM280.9,531.3c0-.6-.2-1.1-.6-1.5s-.9-.6-1.4-.6-1,.2-1.4.6-.6.9-.6,1.5.2,1.1.6,1.5.9.6,1.4.6,1-.2,1.4-.6.6-.9.6-1.5Z"/>
    <path class="st18" d="M284.6,528.9v.9c.3-.4.6-.6.9-.8s.7-.3,1.2-.3.9.1,1.3.3.7.5,1,.9.3.8.3,1.3c0,.7-.3,1.3-.8,1.8s-1.1.8-1.9.8-1.6-.4-2.1-1.1v3h1.2c.1,0,.2,0,.3,0s0,.1,0,.2,0,.1,0,.2-.1,0-.3,0h-2.3c-.1,0-.2,0-.3,0s0-.1,0-.2,0-.1,0-.2.1,0,.3,0h.7v-6.3h-.7c-.1,0-.2,0-.3,0s0-.1,0-.2,0-.1,0-.2.1,0,.3,0h1.2ZM288.8,531.3c0-.6-.2-1.1-.6-1.5s-.9-.6-1.5-.6-1.1.2-1.5.6-.6.9-.6,1.5.2,1.1.6,1.5.9.6,1.5.6,1.1-.2,1.5-.6.6-.9.6-1.5Z"/>
    <path class="st18" d="M293.9,526.6v6.9h1.9c.1,0,.2,0,.3,0s0,.1,0,.2,0,.1,0,.2-.1,0-.3,0h-4.4c-.1,0-.2,0-.3,0s0-.1,0-.2,0-.1,0-.2.1,0,.3,0h1.9v-6.4h-1.4c-.1,0-.2,0-.3,0s0-.1,0-.2,0-.1,0-.2.1,0,.3,0h1.9Z"/>
    <path class="st18" d="M303.6,531.4c0,.8-.3,1.4-.8,1.9s-1.2.8-1.9.8-1.4-.3-2-.8-.8-1.2-.8-1.9.3-1.4.8-1.9,1.2-.8,2-.8,1.4.3,1.9.8.8,1.2.8,1.9ZM303.1,531.4c0-.6-.2-1.1-.7-1.6s-1-.7-1.6-.7-1.2.2-1.6.7-.7,1-.7,1.6.2,1.1.7,1.6,1,.7,1.6.7,1.2-.2,1.6-.7.7-1,.7-1.6Z"/>
    <path class="st18" d="M307,528.9h2.7c.1,0,.2,0,.3,0s0,.1,0,.2,0,.1,0,.2-.1,0-.3,0h-2.7v3.3c0,.3.1.5.3.7s.6.3,1,.3.7,0,1.1-.1.7-.2.9-.3c0,0,.1,0,.2,0s.1,0,.2,0,0,.1,0,.2,0,.1,0,.2c-.1.1-.4.3-.9.4s-.9.2-1.4.2-1-.1-1.4-.4-.5-.6-.5-1.1v-3.3h-.9c-.1,0-.2,0-.3,0s0-.1,0-.2,0-.1,0-.2.1,0,.3,0h.9v-1.5c0-.1,0-.2,0-.3s.1,0,.2,0,.1,0,.2,0,0,.1,0,.3v1.5Z"/>
    <path class="st18" d="M324.5,529.4v-.2c0-.1,0-.2,0-.3s.1,0,.2,0,.1,0,.2,0,0,.1,0,.3v1.1c0,.1,0,.2,0,.3s-.1,0-.2,0-.1,0-.2,0,0-.1,0-.2c0-.3-.2-.5-.5-.8s-.8-.4-1.4-.4-1.3.2-1.7.7-.6,1-.6,1.6.2,1.2.6,1.6,1,.6,1.6.6.8,0,1.2-.2.8-.4,1.1-.7c0,0,.2-.1.2-.1s.1,0,.2,0,0,.1,0,.2c0,.2-.2.4-.6.6-.6.4-1.3.6-2.1.6s-1.4-.3-2-.8-.8-1.1-.8-1.9.3-1.5.8-2,1.2-.8,2-.8,1.4.2,1.9.7Z"/>
    <path class="st18" d="M332.4,531.4c0,.8-.3,1.4-.8,1.9s-1.2.8-1.9.8-1.4-.3-2-.8-.8-1.2-.8-1.9.3-1.4.8-1.9,1.2-.8,2-.8,1.4.3,1.9.8.8,1.2.8,1.9ZM331.9,531.4c0-.6-.2-1.1-.7-1.6s-1-.7-1.6-.7-1.2.2-1.6.7-.7,1-.7,1.6.2,1.1.7,1.6,1,.7,1.6.7,1.2-.2,1.6-.7.7-1,.7-1.6Z"/>
    <path class="st18" d="M339.2,526.6v6.9h.7c.1,0,.2,0,.3,0s0,.1,0,.2,0,.1,0,.2-.1,0-.3,0h-1.2v-1c-.6.8-1.3,1.2-2.2,1.2s-.9-.1-1.3-.4-.7-.6-1-1-.4-.9-.4-1.4.1-.9.4-1.4.6-.8,1-1,.8-.4,1.3-.4c.9,0,1.6.4,2.2,1.2v-2.8h-.7c-.1,0-.2,0-.3,0s0-.1,0-.2,0-.1,0-.2.1,0,.3,0h1.2ZM338.8,531.4c0-.6-.2-1.2-.6-1.6s-.9-.6-1.5-.6-1.1.2-1.5.6-.6,1-.6,1.6.2,1.1.6,1.6.9.6,1.5.6,1.1-.2,1.5-.6.6-1,.6-1.6Z"/>
    <path class="st18" d="M346.7,531.5h-5c0,.6.4,1.1.8,1.5s1,.6,1.7.6.8,0,1.2-.2.7-.3,1-.5c0,0,.1,0,.2,0s.1,0,.2,0,0,.1,0,.2,0,.1,0,.2c-.2.2-.5.4-1,.5s-1,.3-1.5.3c-.8,0-1.5-.3-2.1-.8s-.8-1.2-.8-2,.3-1.3.8-1.8,1.2-.8,2-.8,1.5.3,2,.8.8,1.2.8,2ZM346.2,531c0-.5-.4-1-.8-1.3s-.9-.5-1.5-.5-1.1.2-1.5.5-.7.8-.8,1.3h4.5Z"/>
    <path class="st18" d="M351.1,528.9h.2c.2,0,.4,0,.6.2s.2.3.2.6,0,.4-.2.6-.3.2-.6.2h-.2c-.2,0-.4,0-.6-.2s-.2-.3-.2-.6,0-.4.2-.6.3-.2.6-.2ZM351.1,532.5h.2c.2,0,.4,0,.6.2s.2.3.2.6,0,.4-.2.6-.3.2-.6.2h-.2c-.2,0-.4,0-.6-.2s-.2-.3-.2-.6,0-.4.2-.6.3-.2.6-.2Z"/>
    <path class="st18" d="M367.3,529.8v-.9h1.2c.1,0,.2,0,.3,0s0,.1,0,.2,0,.1,0,.2-.1,0-.3,0h-.7v4.9c0,.3,0,.6-.2.9s-.2.3-.5.5-.4.3-.6.4-.4.1-.7.1h-1.4c-.1,0-.2,0-.3,0s0-.1,0-.2,0-.1,0-.2.1,0,.3,0h1.4c.3,0,.5,0,.8-.2s.4-.4.6-.7c0-.2.1-.4.1-.6v-1.5c-.5.7-1.2,1.1-2,1.1s-1.3-.3-1.7-.8-.7-1.1-.7-1.8.2-1.3.7-1.8,1.1-.8,1.7-.8,1.5.4,2,1.1ZM367.3,531.3c0-.6-.2-1.1-.6-1.5s-.9-.6-1.4-.6-1,.2-1.4.6-.6.9-.6,1.5.2,1.1.6,1.5.9.6,1.4.6,1-.2,1.4-.6.6-.9.6-1.5Z"/>
    <path class="st18" d="M374.5,529.8v-.9h1.2c.1,0,.2,0,.3,0s0,.1,0,.2,0,.1,0,.2-.1,0-.3,0h-.7v4.9c0,.3,0,.6-.2.9s-.2.3-.5.5-.4.3-.6.4-.4.1-.7.1h-1.4c-.1,0-.2,0-.3,0s0-.1,0-.2,0-.1,0-.2.1,0,.3,0h1.4c.3,0,.5,0,.8-.2s.4-.4.6-.7c0-.2.1-.4.1-.6v-1.5c-.5.7-1.2,1.1-2,1.1s-1.3-.3-1.7-.8-.7-1.1-.7-1.8.2-1.3.7-1.8,1.1-.8,1.7-.8,1.5.4,2,1.1ZM374.5,531.3c0-.6-.2-1.1-.6-1.5s-.9-.6-1.4-.6-1,.2-1.4.6-.6.9-.6,1.5.2,1.1.6,1.5.9.6,1.4.6,1-.2,1.4-.6.6-.9.6-1.5Z"/>
    <path class="st18" d="M378.2,528.9v.9c.3-.4.6-.6.9-.8s.7-.3,1.2-.3.9.1,1.3.3.7.5,1,.9.3.8.3,1.3c0,.7-.3,1.3-.8,1.8s-1.1.8-1.9.8-1.6-.4-2.1-1.1v3h1.2c.1,0,.2,0,.3,0s0,.1,0,.2,0,.1,0,.2-.1,0-.3,0h-2.3c-.1,0-.2,0-.3,0s0-.1,0-.2,0-.1,0-.2.1,0,.3,0h.7v-6.3h-.7c-.1,0-.2,0-.3,0s0-.1,0-.2,0-.1,0-.2.1,0,.3,0h1.2ZM382.5,531.3c0-.6-.2-1.1-.6-1.5s-.9-.6-1.5-.6-1.1.2-1.5.6-.6.9-.6,1.5.2,1.1.6,1.5.9.6,1.5.6,1.1-.2,1.5-.6.6-.9.6-1.5Z"/>
    <path class="st18" d="M387.5,526.6v6.9h1.9c.1,0,.2,0,.3,0s0,.1,0,.2,0,.1,0,.2-.1,0-.3,0h-4.4c-.1,0-.2,0-.3,0s0-.1,0-.2,0-.1,0-.2.1,0,.3,0h1.9v-6.4h-1.4c-.1,0-.2,0-.3,0s0-.1,0-.2,0-.1,0-.2.1,0,.3,0h1.9Z"/>
    <path class="st18" d="M397.2,531.4c0,.8-.3,1.4-.8,1.9s-1.2.8-1.9.8-1.4-.3-2-.8-.8-1.2-.8-1.9.3-1.4.8-1.9,1.2-.8,2-.8,1.4.3,1.9.8.8,1.2.8,1.9ZM396.7,531.4c0-.6-.2-1.1-.7-1.6s-1-.7-1.6-.7-1.2.2-1.6.7-.7,1-.7,1.6.2,1.1.7,1.6,1,.7,1.6.7,1.2-.2,1.6-.7.7-1,.7-1.6Z"/>
    <path class="st18" d="M400.6,528.9h2.7c.1,0,.2,0,.3,0s0,.1,0,.2,0,.1,0,.2-.1,0-.3,0h-2.7v3.3c0,.3.1.5.3.7s.6.3,1,.3.7,0,1.1-.1.7-.2.9-.3c0,0,.1,0,.2,0s.1,0,.2,0,0,.1,0,.2,0,.1,0,.2c-.1.1-.4.3-.9.4s-.9.2-1.4.2-1-.1-1.4-.4-.5-.6-.5-1.1v-3.3h-.9c-.1,0-.2,0-.3,0s0-.1,0-.2,0-.1,0-.2.1,0,.3,0h.9v-1.5c0-.1,0-.2,0-.3s.1,0,.2,0,.1,0,.2,0,0,.1,0,.3v1.5Z"/>
    <path class="st18" d="M408.8,531c0-.4,0-.9.2-1.4s.3-1.1.7-1.7.6-1.1.7-1.2c0,0,0,0,.2,0s.1,0,.2,0,0,.1,0,.2,0,0,0,.1c-.4.8-.7,1.5-.9,2.1s-.3,1.3-.3,1.9,0,1.3.3,1.9.5,1.4.9,2.1c0,0,0,0,0,.1,0,0,0,.1,0,.2s-.1,0-.2,0-.1,0-.2,0c-.1-.1-.4-.5-.7-1.2s-.6-1.2-.7-1.7-.2-1-.2-1.5Z"/>
    <path class="st18" d="M413.8,528.9v.5c.4-.4.8-.7,1.3-.7s.5,0,.7.2.4.3.5.6c.2-.3.4-.5.7-.6s.5-.2.7-.2c.4,0,.6.1.8.3.3.3.4.6.4,1v3.4h.4c.1,0,.2,0,.3,0s0,.1,0,.2,0,.1,0,.2-.1,0-.3,0h-.9v-3.9c0-.2,0-.5-.2-.6s-.3-.2-.5-.2-.4,0-.6.2-.4.4-.7.8v3.3h.4c.1,0,.2,0,.3,0s0,.1,0,.2,0,.1,0,.2-.1,0-.3,0h-.9v-3.8c0-.3,0-.5-.2-.6s-.3-.3-.5-.3-.3,0-.5.2c-.2.2-.5.4-.8.8v3.3h.4c.1,0,.2,0,.3,0s0,.1,0,.2,0,.1,0,.2-.1,0-.3,0h-1.3c-.1,0-.2,0-.3,0s0-.1,0-.2,0-.1,0-.2.1,0,.3,0h.4v-4.1h-.4c-.1,0-.2,0-.3,0s0-.1,0-.2,0-.1,0-.2.1,0,.3,0h.9Z"/>
    <path class="st18" d="M422.2,528.9h2.7c.1,0,.2,0,.3,0s0,.1,0,.2,0,.1,0,.2-.1,0-.3,0h-2.7v3.3c0,.3.1.5.3.7s.6.3,1,.3.7,0,1.1-.1.7-.2.9-.3c0,0,.1,0,.2,0s.1,0,.2,0,0,.1,0,.2,0,.1,0,.2c-.1.1-.4.3-.9.4s-.9.2-1.4.2-1-.1-1.4-.4-.5-.6-.5-1.1v-3.3h-.9c-.1,0-.2,0-.3,0s0-.1,0-.2,0-.1,0-.2.1,0,.3,0h.9v-1.5c0-.1,0-.2,0-.3s.1,0,.2,0,.1,0,.2,0,0,.1,0,.3v1.5Z"/>
    <path class="st18" d="M432.5,529.4v-.2c0-.1,0-.2,0-.3s.1,0,.2,0,.1,0,.2,0,0,.1,0,.3v1.1c0,.1,0,.2,0,.3s-.1,0-.2,0-.1,0-.2,0,0-.1,0-.2c0-.3-.2-.5-.5-.8s-.8-.4-1.4-.4-1.3.2-1.7.7-.6,1-.6,1.6.2,1.2.6,1.6,1,.6,1.6.6.8,0,1.2-.2.8-.4,1.1-.7c0,0,.2-.1.2-.1s.1,0,.2,0,0,.1,0,.2c0,.2-.2.4-.6.6-.6.4-1.3.6-2.1.6s-1.4-.3-2-.8-.8-1.1-.8-1.9.3-1.5.8-2,1.2-.8,2-.8,1.4.2,1.9.7Z"/>
    <path class="st18" d="M439.1,534v-.7c-.7.6-1.5.9-2.3.9s-1.1-.1-1.4-.4-.5-.7-.5-1.1.2-.9.7-1.2,1.1-.5,1.9-.5.5,0,.7,0,.6,0,.9.1v-.8c0-.3-.1-.5-.4-.7s-.6-.3-1.1-.3-.9.1-1.6.3c-.1,0-.2,0-.2,0,0,0-.1,0-.2,0s0-.1,0-.2,0-.1,0-.2c0,0,.3-.1.7-.2.6-.2,1.1-.2,1.4-.2.6,0,1.1.2,1.5.5s.5.7.5,1v3.3h.7c.1,0,.2,0,.3,0s0,.1,0,.2,0,.1,0,.2-.1,0-.3,0h-1.2ZM439.1,531.5c-.2,0-.5-.1-.7-.1s-.5,0-.8,0c-.7,0-1.3.2-1.7.5-.3.2-.5.5-.5.8s.1.5.3.8.6.3,1,.3.8,0,1.2-.3.7-.4,1.1-.8v-1.1Z"/>
    <path class="st18" d="M444.3,528.9v1.2c.6-.6,1.1-1,1.4-1.1s.6-.2.9-.2.6,0,.8.3.4.3.4.4,0,.1,0,.2-.1,0-.2,0,0,0,0,0,0,0-.2-.1c-.1-.1-.3-.2-.4-.3s-.2,0-.3,0c-.2,0-.5,0-.8.3s-.8.6-1.6,1.3v2.7h2.2c.1,0,.2,0,.3,0s0,.1,0,.2,0,.1,0,.2-.1,0-.3,0h-3.9c-.1,0-.2,0-.3,0s0-.1,0-.2,0-.1,0-.2.1,0,.3,0h1.2v-4.1h-.9c-.1,0-.2,0-.3,0s0-.1,0-.2,0-.1,0-.2.1,0,.3,0h1.4Z"/>
    <path class="st18" d="M453.7,529.2c0-.1,0-.2,0-.2s.1,0,.2,0,.1,0,.2,0,0,.1,0,.3v.8c0,.1,0,.2,0,.3s-.1,0-.2,0-.1,0-.2,0,0-.1,0-.2c0-.2-.1-.4-.4-.6-.3-.2-.7-.3-1.3-.3s-1,.1-1.3.3c-.2.2-.3.4-.3.6s.1.4.4.6c.2.1.5.2,1.1.3.7,0,1.2.2,1.4.3.4.1.7.3.8.6s.3.5.3.8c0,.4-.2.8-.6,1.1s-1,.5-1.8.5-1.4-.2-1.9-.6c0,.1,0,.2,0,.3s0,0,0,0,0,0-.1,0-.1,0-.2,0,0-.1,0-.3v-1c0-.1,0-.2,0-.3s.1,0,.2,0,.1,0,.2,0,0,.1,0,.2c0,.2,0,.3.1.5.1.2.4.3.7.5s.7.2,1.1.2c.6,0,1.1-.1,1.4-.4s.5-.5.5-.8-.2-.5-.5-.7c-.3-.2-.8-.3-1.4-.4s-1-.1-1.3-.2-.5-.3-.6-.5-.2-.4-.2-.7c0-.4.2-.8.6-1s.9-.4,1.5-.4,1.2.2,1.7.5Z"/>
    <path class="st18" d="M458.3,532.2h1.6l-1.7,3.2c-.1.2-.2.3-.4.3s-.2,0-.2-.1-.1-.2-.1-.2,0,0,0-.1l.9-3Z"/>
    <path class="st18" d="M475.1,534v-.7c-.7.6-1.5.9-2.3.9s-1.1-.1-1.4-.4-.5-.7-.5-1.1.2-.9.7-1.2,1.1-.5,1.9-.5.5,0,.7,0,.6,0,.9.1v-.8c0-.3-.1-.5-.4-.7s-.6-.3-1.1-.3-.9.1-1.6.3c-.1,0-.2,0-.2,0,0,0-.1,0-.2,0s0-.1,0-.2,0-.1,0-.2c0,0,.3-.1.7-.2.6-.2,1.1-.2,1.4-.2.6,0,1.1.2,1.5.5s.5.7.5,1v3.3h.7c.1,0,.2,0,.3,0s0,.1,0,.2,0,.1,0,.2-.1,0-.3,0h-1.2ZM475.1,531.5c-.2,0-.5-.1-.7-.1s-.5,0-.8,0c-.7,0-1.3.2-1.7.5-.3.2-.5.5-.5.8s.1.5.3.8.6.3,1,.3.8,0,1.2-.3.7-.4,1.1-.8v-1.1Z"/>
    <path class="st18" d="M483.5,531.5h-5c0,.6.4,1.1.8,1.5s1,.6,1.7.6.8,0,1.2-.2.7-.3,1-.5c0,0,.1,0,.2,0s.1,0,.2,0,0,.1,0,.2,0,.1,0,.2c-.2.2-.5.4-1,.5s-1,.3-1.5.3c-.8,0-1.5-.3-2.1-.8s-.8-1.2-.8-2,.3-1.3.8-1.8,1.2-.8,2-.8,1.5.3,2,.8.8,1.2.8,2ZM483,531c0-.5-.4-1-.8-1.3s-.9-.5-1.5-.5-1.1.2-1.5.5-.7.8-.8,1.3h4.5Z"/>
    <path class="st18" d="M489.7,529.2c0-.1,0-.2,0-.2s.1,0,.2,0,.1,0,.2,0,0,.1,0,.3v.8c0,.1,0,.2,0,.3s-.1,0-.2,0-.1,0-.2,0,0-.1,0-.2c0-.2-.1-.4-.4-.6-.3-.2-.7-.3-1.3-.3s-1,.1-1.3.3c-.2.2-.3.4-.3.6s.1.4.4.6c.2.1.5.2,1.1.3.7,0,1.2.2,1.4.3.4.1.7.3.8.6s.3.5.3.8c0,.4-.2.8-.6,1.1s-1,.5-1.8.5-1.4-.2-1.9-.6c0,.1,0,.2,0,.3s0,0,0,0,0,0-.1,0-.1,0-.2,0,0-.1,0-.3v-1c0-.1,0-.2,0-.3s.1,0,.2,0,.1,0,.2,0,0,.1,0,.2c0,.2,0,.3.1.5.1.2.4.3.7.5s.7.2,1.1.2c.6,0,1.1-.1,1.4-.4s.5-.5.5-.8-.2-.5-.5-.7c-.3-.2-.8-.3-1.4-.4s-1-.1-1.3-.2-.5-.3-.6-.5-.2-.4-.2-.7c0-.4.2-.8.6-1s.9-.4,1.5-.4,1.2.2,1.7.5Z"/>
    <path class="st18" d="M495.2,531c0-.4,0-.9.2-1.4s.3-1.1.7-1.7.6-1.1.7-1.2c0,0,0,0,.2,0s.1,0,.2,0,0,.1,0,.2,0,0,0,.1c-.4.8-.7,1.5-.9,2.1s-.3,1.3-.3,1.9,0,1.3.3,1.9.5,1.4.9,2.1c0,0,0,0,0,.1,0,0,0,.1,0,.2s-.1,0-.2,0-.1,0-.2,0c-.1-.1-.4-.5-.7-1.2s-.6-1.2-.7-1.7-.2-1-.2-1.5Z"/>
    <path class="st18" d="M500.2,528.9v.5c.4-.4.8-.7,1.3-.7s.5,0,.7.2.4.3.5.6c.2-.3.4-.5.7-.6s.5-.2.7-.2c.4,0,.6.1.8.3.3.3.4.6.4,1v3.4h.4c.1,0,.2,0,.3,0s0,.1,0,.2,0,.1,0,.2-.1,0-.3,0h-.9v-3.9c0-.2,0-.5-.2-.6s-.3-.2-.5-.2-.4,0-.6.2-.4.4-.7.8v3.3h.4c.1,0,.2,0,.3,0s0,.1,0,.2,0,.1,0,.2-.1,0-.3,0h-.9v-3.8c0-.3,0-.5-.2-.6s-.3-.3-.5-.3-.3,0-.5.2c-.2.2-.5.4-.8.8v3.3h.4c.1,0,.2,0,.3,0s0,.1,0,.2,0,.1,0,.2-.1,0-.3,0h-1.3c-.1,0-.2,0-.3,0s0-.1,0-.2,0-.1,0-.2.1,0,.3,0h.4v-4.1h-.4c-.1,0-.2,0-.3,0s0-.1,0-.2,0-.1,0-.2.1,0,.3,0h.9Z"/>
    <path class="st18" d="M507.8,528.9v.9c.3-.4.6-.6.9-.8s.7-.3,1.2-.3.9.1,1.3.3.7.5,1,.9.3.8.3,1.3c0,.7-.3,1.3-.8,1.8s-1.1.8-1.9.8-1.6-.4-2.1-1.1v3h1.2c.1,0,.2,0,.3,0s0,.1,0,.2,0,.1,0,.2-.1,0-.3,0h-2.3c-.1,0-.2,0-.3,0s0-.1,0-.2,0-.1,0-.2.1,0,.3,0h.7v-6.3h-.7c-.1,0-.2,0-.3,0s0-.1,0-.2,0-.1,0-.2.1,0,.3,0h1.2ZM512.1,531.3c0-.6-.2-1.1-.6-1.5s-.9-.6-1.5-.6-1.1.2-1.5.6-.6.9-.6,1.5.2,1.1.6,1.5.9.6,1.5.6,1.1-.2,1.5-.6.6-.9.6-1.5Z"/>
    <path class="st18" d="M518.5,529.8v-.9h1.2c.1,0,.2,0,.3,0s0,.1,0,.2,0,.1,0,.2-.1,0-.3,0h-.7v4.9c0,.3,0,.6-.2.9s-.2.3-.5.5-.4.3-.6.4-.4.1-.7.1h-1.4c-.1,0-.2,0-.3,0s0-.1,0-.2,0-.1,0-.2.1,0,.3,0h1.4c.3,0,.5,0,.8-.2s.4-.4.6-.7c0-.2.1-.4.1-.6v-1.5c-.5.7-1.2,1.1-2,1.1s-1.3-.3-1.7-.8-.7-1.1-.7-1.8.2-1.3.7-1.8,1.1-.8,1.7-.8,1.5.4,2,1.1ZM518.5,531.3c0-.6-.2-1.1-.6-1.5s-.9-.6-1.4-.6-1,.2-1.4.6-.6.9-.6,1.5.2,1.1.6,1.5.9.6,1.4.6,1-.2,1.4-.6.6-.9.6-1.5Z"/>
    <path class="st18" d="M523.1,532.2h1.6l-1.7,3.2c-.1.2-.2.3-.4.3s-.2,0-.2-.1-.1-.2-.1-.2,0,0,0-.1l.9-3Z"/>
    <path class="st18" d="M540.2,534h-.6s-1.1-3.2-1.1-3.2l-1.1,3.2h-.6s-1-4.6-1-4.6h-.2c-.1,0-.2,0-.3,0s0-.1,0-.2,0-.1,0-.2.1,0,.3,0h1.4c.1,0,.2,0,.3,0s0,.1,0,.2,0,.1,0,.2-.1,0-.3,0h-.6l.9,3.9,1-3.1h.6l1.1,3.1.8-3.9h-.6c-.1,0-.2,0-.3,0s0-.1,0-.2,0-.1,0-.2.1,0,.3,0h1.3c.1,0,.2,0,.3,0s0,.1,0,.2,0,.1,0,.2-.1,0-.3,0h-.2l-1,4.6Z"/>
    <path class="st18" d="M544.7,528.9h2.7c.1,0,.2,0,.3,0s0,.1,0,.2,0,.1,0,.2-.1,0-.3,0h-2.7v3.3c0,.3.1.5.3.7s.6.3,1,.3.7,0,1.1-.1.7-.2.9-.3c0,0,.1,0,.2,0s.1,0,.2,0,0,.1,0,.2,0,.1,0,.2c-.1.1-.4.3-.9.4s-.9.2-1.4.2-1-.1-1.4-.4-.5-.6-.5-1.1v-3.3h-.9c-.1,0-.2,0-.3,0s0-.1,0-.2,0-.1,0-.2.1,0,.3,0h.9v-1.5c0-.1,0-.2,0-.3s.1,0,.2,0,.1,0,.2,0,0,.1,0,.3v1.5Z"/>
    <path class="st18" d="M553,531c0,.4,0,.9-.2,1.4s-.3,1.1-.7,1.7-.6,1.1-.7,1.2c0,0,0,0-.2,0s-.1,0-.2,0,0-.1,0-.2,0,0,0-.1c.4-.8.7-1.5.9-2.1s.3-1.3.3-1.9,0-1.3-.3-1.9-.5-1.4-.9-2.1c0,0,0,0,0-.1,0,0,0-.1,0-.2s.1,0,.2,0,.1,0,.2,0c.1.1.4.5.7,1.2s.6,1.2.7,1.7.2,1,.2,1.5Z"/>
    <path class="st18" d="M560.2,531c0,.4,0,.9-.2,1.4s-.3,1.1-.7,1.7-.6,1.1-.7,1.2c0,0,0,0-.2,0s-.1,0-.2,0,0-.1,0-.2,0,0,0-.1c.4-.8.7-1.5.9-2.1s.3-1.3.3-1.9,0-1.3-.3-1.9-.5-1.4-.9-2.1c0,0,0,0,0-.1,0,0,0-.1,0-.2s.1,0,.2,0,.1,0,.2,0c.1.1.4.5.7,1.2s.6,1.2.7,1.7.2,1,.2,1.5Z"/>
    <path class="st18" d="M574.7,530.8v2.5c0,.1,0,.2,0,.3s-.1,0-.2,0-.1,0-.2,0,0-.1,0-.3v-2.5h-2.2c-.1,0-.2,0-.3,0s0-.1,0-.2,0-.1,0-.2.1,0,.3,0h2.2v-2.4c0-.1,0-.2,0-.3s.1,0,.2,0,.1,0,.2,0,0,.1,0,.3v2.4h2.2c.1,0,.2,0,.3,0s0,.1,0,.2,0,.1,0,.2-.1,0-.3,0h-2.2Z"/>
    <path class="st18" d="M590.5,529.8v-.9h1.2c.1,0,.2,0,.3,0s0,.1,0,.2,0,.1,0,.2-.1,0-.3,0h-.7v4.9c0,.3,0,.6-.2.9s-.2.3-.5.5-.4.3-.6.4-.4.1-.7.1h-1.4c-.1,0-.2,0-.3,0s0-.1,0-.2,0-.1,0-.2.1,0,.3,0h1.4c.3,0,.5,0,.8-.2s.4-.4.6-.7c0-.2.1-.4.1-.6v-1.5c-.5.7-1.2,1.1-2,1.1s-1.3-.3-1.7-.8-.7-1.1-.7-1.8.2-1.3.7-1.8,1.1-.8,1.7-.8,1.5.4,2,1.1ZM590.5,531.3c0-.6-.2-1.1-.6-1.5s-.9-.6-1.4-.6-1,.2-1.4.6-.6.9-.6,1.5.2,1.1.6,1.5.9.6,1.4.6,1-.2,1.4-.6.6-.9.6-1.5Z"/>
    <path class="st18" d="M598.7,531.5h-5c0,.6.4,1.1.8,1.5s1,.6,1.7.6.8,0,1.2-.2.7-.3,1-.5c0,0,.1,0,.2,0s.1,0,.2,0,0,.1,0,.2,0,.1,0,.2c-.2.2-.5.4-1,.5s-1,.3-1.5.3c-.8,0-1.5-.3-2.1-.8s-.8-1.2-.8-2,.3-1.3.8-1.8,1.2-.8,2-.8,1.5.3,2,.8.8,1.2.8,2ZM598.2,531c0-.5-.4-1-.8-1.3s-.9-.5-1.5-.5-1.1.2-1.5.5-.7.8-.8,1.3h4.5Z"/>
    <path class="st18" d="M606,531.4c0,.8-.3,1.4-.8,1.9s-1.2.8-1.9.8-1.4-.3-2-.8-.8-1.2-.8-1.9.3-1.4.8-1.9,1.2-.8,2-.8,1.4.3,1.9.8.8,1.2.8,1.9ZM605.5,531.4c0-.6-.2-1.1-.7-1.6s-1-.7-1.6-.7-1.2.2-1.6.7-.7,1-.7,1.6.2,1.1.7,1.6,1,.7,1.6.7,1.2-.2,1.6-.7.7-1,.7-1.6Z"/>
    <path class="st18" d="M608.2,528.9v.5c.4-.4.8-.7,1.3-.7s.5,0,.7.2.4.3.5.6c.2-.3.4-.5.7-.6s.5-.2.7-.2c.4,0,.6.1.8.3.3.3.4.6.4,1v3.4h.4c.1,0,.2,0,.3,0s0,.1,0,.2,0,.1,0,.2-.1,0-.3,0h-.9v-3.9c0-.2,0-.5-.2-.6s-.3-.2-.5-.2-.4,0-.6.2-.4.4-.7.8v3.3h.4c.1,0,.2,0,.3,0s0,.1,0,.2,0,.1,0,.2-.1,0-.3,0h-.9v-3.8c0-.3,0-.5-.2-.6s-.3-.3-.5-.3-.3,0-.5.2c-.2.2-.5.4-.8.8v3.3h.4c.1,0,.2,0,.3,0s0,.1,0,.2,0,.1,0,.2-.1,0-.3,0h-1.3c-.1,0-.2,0-.3,0s0-.1,0-.2,0-.1,0-.2.1,0,.3,0h.4v-4.1h-.4c-.1,0-.2,0-.3,0s0-.1,0-.2,0-.1,0-.2.1,0,.3,0h.9Z"/>
    <path class="st18" d="M621,537.2h-6.5c-.1,0-.2,0-.3,0s0-.1,0-.2,0-.1,0-.2.1,0,.3,0h6.5c.1,0,.2,0,.3,0s0,.1,0,.2,0,.1,0,.2-.1,0-.3,0Z"/>
    <path class="st18" d="M623,528.9v.9c.3-.4.6-.6.9-.8s.7-.3,1.2-.3.9.1,1.3.3.7.5,1,.9.3.8.3,1.3c0,.7-.3,1.3-.8,1.8s-1.1.8-1.9.8-1.6-.4-2.1-1.1v3h1.2c.1,0,.2,0,.3,0s0,.1,0,.2,0,.1,0,.2-.1,0-.3,0h-2.3c-.1,0-.2,0-.3,0s0-.1,0-.2,0-.1,0-.2.1,0,.3,0h.7v-6.3h-.7c-.1,0-.2,0-.3,0s0-.1,0-.2,0-.1,0-.2.1,0,.3,0h1.2ZM627.3,531.3c0-.6-.2-1.1-.6-1.5s-.9-.6-1.5-.6-1.1.2-1.5.6-.6.9-.6,1.5.2,1.1.6,1.5.9.6,1.5.6,1.1-.2,1.5-.6.6-.9.6-1.5Z"/>
    <path class="st18" d="M634.8,531.4c0,.8-.3,1.4-.8,1.9s-1.2.8-1.9.8-1.4-.3-2-.8-.8-1.2-.8-1.9.3-1.4.8-1.9,1.2-.8,2-.8,1.4.3,1.9.8.8,1.2.8,1.9ZM634.3,531.4c0-.6-.2-1.1-.7-1.6s-1-.7-1.6-.7-1.2.2-1.6.7-.7,1-.7,1.6.2,1.1.7,1.6,1,.7,1.6.7,1.2-.2,1.6-.7.7-1,.7-1.6Z"/>
    <path class="st18" d="M639.5,528.9v4.6h1.9c.1,0,.2,0,.3,0s0,.1,0,.2,0,.1,0,.2-.1,0-.3,0h-4.4c-.1,0-.2,0-.3,0s0-.1,0-.2,0-.1,0-.2.1,0,.3,0h1.9v-4.1h-1.4c-.1,0-.2,0-.3,0s0-.1,0-.2,0-.1,0-.2.1,0,.3,0h1.9ZM639.5,526.4v1.3h-.7v-1.3h.7Z"/>
    <path class="st18" d="M644.9,528.9v.7c.3-.3.7-.6.9-.7s.6-.2.9-.2.7,0,1,.2c.2.1.4.3.6.6s.3.5.3.8v3.1h.4c.1,0,.2,0,.3,0s0,.1,0,.2,0,.1,0,.2-.1,0-.3,0h-1.3c-.1,0-.2,0-.3,0s0-.1,0-.2,0-.1,0-.2.1,0,.3,0h.4v-3c0-.3-.1-.6-.4-.9s-.6-.4-1-.4-.6,0-.8.2-.6.5-1,1v3.1h.6c.1,0,.2,0,.3,0s0,.1,0,.2,0,.1,0,.2-.1,0-.3,0h-1.6c-.1,0-.2,0-.3,0s0-.1,0-.2,0-.1,0-.2.1,0,.3,0h.6v-4.1h-.4c-.1,0-.2,0-.3,0s0-.1,0-.2,0-.1,0-.2.1,0,.3,0h.9Z"/>
    <path class="st18" d="M652.7,528.9h2.7c.1,0,.2,0,.3,0s0,.1,0,.2,0,.1,0,.2-.1,0-.3,0h-2.7v3.3c0,.3.1.5.3.7s.6.3,1,.3.7,0,1.1-.1.7-.2.9-.3c0,0,.1,0,.2,0s.1,0,.2,0,0,.1,0,.2,0,.1,0,.2c-.1.1-.4.3-.9.4s-.9.2-1.4.2-1-.1-1.4-.4-.5-.6-.5-1.1v-3.3h-.9c-.1,0-.2,0-.3,0s0-.1,0-.2,0-.1,0-.2.1,0,.3,0h.9v-1.5c0-.1,0-.2,0-.3s.1,0,.2,0,.1,0,.2,0,0,.1,0,.3v1.5Z"/>
    <path class="st18" d="M660.8,531c0-.4,0-.9.2-1.4s.3-1.1.7-1.7.6-1.1.7-1.2c0,0,0,0,.2,0s.1,0,.2,0,0,.1,0,.2,0,0,0,.1c-.4.8-.7,1.5-.9,2.1s-.3,1.3-.3,1.9,0,1.3.3,1.9.5,1.4.9,2.1c0,0,0,0,0,.1,0,0,0,.1,0,.2s-.1,0-.2,0-.1,0-.2,0c-.1-.1-.4-.5-.7-1.2s-.6-1.2-.7-1.7-.2-1-.2-1.5Z"/>
    <path class="st18" d="M668.2,531c0,.4,0,.9-.2,1.4s-.3,1.1-.7,1.7-.6,1.1-.7,1.2c0,0,0,0-.2,0s-.1,0-.2,0,0-.1,0-.2,0,0,0-.1c.4-.8.7-1.5.9-2.1s.3-1.3.3-1.9,0-1.3-.3-1.9-.5-1.4-.9-2.1c0,0,0,0,0-.1,0,0,0-.1,0-.2s.1,0,.2,0,.1,0,.2,0c.1.1.4.5.7,1.2s.6,1.2.7,1.7.2,1,.2,1.5Z"/>
    <path class="st18" d="M673.2,526.7h1.6l-.4,2.8c0,.1,0,.3-.1.3s-.1,0-.2,0-.2,0-.2,0-.1-.2-.1-.3l-.4-2.8ZM675.8,526.7h1.6l-.4,2.8c0,.1,0,.3-.1.3s-.1,0-.2,0-.2,0-.2,0-.1-.2-.1-.3l-.4-2.8Z"/>
    <path class="st18" d="M681.5,532.2h1.6l-1.7,3.2c-.1.2-.2.3-.4.3s-.2,0-.2-.1-.1-.2-.1-.2,0,0,0-.1l.9-3Z"/>
    <path class="st18" d="M198.2,543.3v.9c.3-.4.6-.6.9-.8s.7-.3,1.2-.3.9.1,1.3.3.7.5,1,.9.3.8.3,1.3c0,.7-.3,1.3-.8,1.8s-1.1.8-1.9.8-1.6-.4-2.1-1.1v3h1.2c.1,0,.2,0,.3,0s0,.1,0,.2,0,.1,0,.2-.1,0-.3,0h-2.3c-.1,0-.2,0-.3,0s0-.1,0-.2,0-.1,0-.2.1,0,.3,0h.7v-6.3h-.7c-.1,0-.2,0-.3,0s0-.1,0-.2,0-.1,0-.2.1,0,.3,0h1.2ZM202.4,545.7c0-.6-.2-1.1-.6-1.5s-.9-.6-1.5-.6-1.1.2-1.5.6-.6.9-.6,1.5.2,1.1.6,1.5.9.6,1.5.6,1.1-.2,1.5-.6.6-.9.6-1.5Z"/>
    <path class="st18" d="M206.6,543.3v1.2c.6-.6,1.1-1,1.4-1.1s.6-.2.9-.2.6,0,.8.3.4.3.4.4,0,.1,0,.2-.1,0-.2,0,0,0,0,0,0,0-.2-.1c-.1-.1-.3-.2-.4-.3s-.2,0-.3,0c-.2,0-.5,0-.8.3s-.8.6-1.6,1.3v2.7h2.2c.1,0,.2,0,.3,0s0,.1,0,.2,0,.1,0,.2-.1,0-.3,0h-3.9c-.1,0-.2,0-.3,0s0-.1,0-.2,0-.1,0-.2.1,0,.3,0h1.2v-4.1h-.9c-.1,0-.2,0-.3,0s0-.1,0-.2,0-.1,0-.2.1,0,.3,0h1.4Z"/>
    <path class="st18" d="M217.2,545.8c0,.8-.3,1.4-.8,1.9s-1.2.8-1.9.8-1.4-.3-2-.8-.8-1.2-.8-1.9.3-1.4.8-1.9,1.2-.8,2-.8,1.4.3,1.9.8.8,1.2.8,1.9ZM216.7,545.8c0-.6-.2-1.1-.7-1.6s-1-.7-1.6-.7-1.2.2-1.6.7-.7,1-.7,1.6.2,1.1.7,1.6,1,.7,1.6.7,1.2-.2,1.6-.7.7-1,.7-1.6Z"/>
    <path class="st18" d="M219.4,543.3v.5c.4-.4.8-.7,1.3-.7s.5,0,.7.2.4.3.5.6c.2-.3.4-.5.7-.6s.5-.2.7-.2c.4,0,.6.1.8.3.3.3.4.6.4,1v3.4h.4c.1,0,.2,0,.3,0s0,.1,0,.2,0,.1,0,.2-.1,0-.3,0h-.9v-3.9c0-.2,0-.5-.2-.6s-.3-.2-.5-.2-.4,0-.6.2-.4.4-.7.8v3.3h.4c.1,0,.2,0,.3,0s0,.1,0,.2,0,.1,0,.2-.1,0-.3,0h-.9v-3.8c0-.3,0-.5-.2-.6s-.3-.3-.5-.3-.3,0-.5.2c-.2.2-.5.4-.8.8v3.3h.4c.1,0,.2,0,.3,0s0,.1,0,.2,0,.1,0,.2-.1,0-.3,0h-1.3c-.1,0-.2,0-.3,0s0-.1,0-.2,0-.1,0-.2.1,0,.3,0h.4v-4.1h-.4c-.1,0-.2,0-.3,0s0-.1,0-.2,0-.1,0-.2.1,0,.3,0h.9Z"/>
    <path class="st18" d="M227,543.3v.9c.3-.4.6-.6.9-.8s.7-.3,1.2-.3.9.1,1.3.3.7.5,1,.9.3.8.3,1.3c0,.7-.3,1.3-.8,1.8s-1.1.8-1.9.8-1.6-.4-2.1-1.1v3h1.2c.1,0,.2,0,.3,0s0,.1,0,.2,0,.1,0,.2-.1,0-.3,0h-2.3c-.1,0-.2,0-.3,0s0-.1,0-.2,0-.1,0-.2.1,0,.3,0h.7v-6.3h-.7c-.1,0-.2,0-.3,0s0-.1,0-.2,0-.1,0-.2.1,0,.3,0h1.2ZM231.2,545.7c0-.6-.2-1.1-.6-1.5s-.9-.6-1.5-.6-1.1.2-1.5.6-.6.9-.6,1.5.2,1.1.6,1.5.9.6,1.5.6,1.1-.2,1.5-.6.6-.9.6-1.5Z"/>
    <path class="st18" d="M235,543.3h2.7c.1,0,.2,0,.3,0s0,.1,0,.2,0,.1,0,.2-.1,0-.3,0h-2.7v3.3c0,.3.1.5.3.7s.6.3,1,.3.7,0,1.1-.1.7-.2.9-.3c0,0,.1,0,.2,0s.1,0,.2,0,0,.1,0,.2,0,.1,0,.2c-.1.1-.4.3-.9.4s-.9.2-1.4.2-1-.1-1.4-.4-.5-.6-.5-1.1v-3.3h-.9c-.1,0-.2,0-.3,0s0-.1,0-.2,0-.1,0-.2.1,0,.3,0h.9v-1.5c0-.1,0-.2,0-.3s.1,0,.2,0,.1,0,.2,0,0,.1,0,.3v1.5Z"/>
    <path class="st18" d="M253.1,544.3h-5.4c-.1,0-.2,0-.3,0s0-.1,0-.2,0-.1,0-.2.1,0,.3,0h5.4c.1,0,.2,0,.3,0s0,.1,0,.2,0,.1,0,.2-.1,0-.3,0ZM253.1,546h-5.4c-.1,0-.2,0-.3,0s0-.1,0-.2,0-.1,0-.2.1,0,.3,0h5.4c.1,0,.2,0,.3,0s0,.1,0,.2,0,.1,0,.2-.1,0-.3,0Z"/>
    <path class="st18" d="M262.8,541.1h1.6l-.4,2.8c0,.1,0,.3-.1.3s-.1,0-.2,0-.2,0-.2,0-.1-.2-.1-.3l-.4-2.8ZM265.3,541.1h1.6l-.4,2.8c0,.1,0,.3-.1.3s-.1,0-.2,0-.2,0-.2,0-.1-.2-.1-.3l-.4-2.8Z"/>
    <path class="st18" d="M272.3,545.3v2.6h1.3c.1,0,.2,0,.3,0s0,.1,0,.2,0,.1,0,.2-.1,0-.3,0h-3.1c-.1,0-.2,0-.3,0s0-.1,0-.2,0-.1,0-.2.1,0,.3,0h1.3v-2.6l-2.2-3.3h-.3c-.1,0-.2,0-.3,0s0-.1,0-.2,0-.1,0-.2.1,0,.3,0h1.4c.1,0,.2,0,.3,0s0,.1,0,.2,0,.1,0,.2-.1,0-.3,0h-.5l1.8,2.8,1.8-2.8h-.5c-.1,0-.2,0-.3,0s0-.1,0-.2,0-.1,0-.2.1,0,.3,0h1.3c.1,0,.2,0,.3,0s0,.1,0,.2,0,.1,0,.2-.1,0-.3,0h-.3l-2.1,3.3Z"/>
    <path class="st18" d="M282,545.8c0,.8-.3,1.4-.8,1.9s-1.2.8-1.9.8-1.4-.3-2-.8-.8-1.2-.8-1.9.3-1.4.8-1.9,1.2-.8,2-.8,1.4.3,1.9.8.8,1.2.8,1.9ZM281.5,545.8c0-.6-.2-1.1-.7-1.6s-1-.7-1.6-.7-1.2.2-1.6.7-.7,1-.7,1.6.2,1.1.7,1.6,1,.7,1.6.7,1.2-.2,1.6-.7.7-1,.7-1.6Z"/>
    <path class="st18" d="M288.1,548.4v-.7c-.7.6-1.4.9-2.2.9s-.8-.1-1.1-.4c-.3-.3-.5-.7-.5-1.2v-3.2h-.7c-.1,0-.2,0-.3,0s0-.1,0-.2,0-.1,0-.2.1,0,.3,0h1.2v3.7c0,.3.1.6.3.8s.5.3.8.3c.8,0,1.5-.4,2.2-1.1v-3.2h-.9c-.1,0-.2,0-.3,0s0-.1,0-.2,0-.1,0-.2.1,0,.3,0h1.4v4.6h.4c.1,0,.2,0,.3,0s0,.1,0,.2,0,.1,0,.2-.1,0-.3,0h-.9Z"/>
    <path class="st18" d="M302.2,548.4v-.7c-.7.6-1.5.9-2.3.9s-1.1-.1-1.4-.4-.5-.7-.5-1.1.2-.9.7-1.2,1.1-.5,1.9-.5.5,0,.7,0,.6,0,.9.1v-.8c0-.3-.1-.5-.4-.7s-.6-.3-1.1-.3-.9.1-1.6.3c-.1,0-.2,0-.2,0,0,0-.1,0-.2,0s0-.1,0-.2,0-.1,0-.2c0,0,.3-.1.7-.2.6-.2,1.1-.2,1.4-.2.6,0,1.1.2,1.5.5s.5.7.5,1v3.3h.7c.1,0,.2,0,.3,0s0,.1,0,.2,0,.1,0,.2-.1,0-.3,0h-1.2ZM302.2,545.9c-.2,0-.5-.1-.7-.1s-.5,0-.8,0c-.7,0-1.3.2-1.7.5-.3.2-.5.5-.5.8s.1.5.3.8.6.3,1,.3.8,0,1.2-.3.7-.4,1.1-.8v-1.1Z"/>
    <path class="st18" d="M307.4,543.3v1.2c.6-.6,1.1-1,1.4-1.1s.6-.2.9-.2.6,0,.8.3.4.3.4.4,0,.1,0,.2-.1,0-.2,0,0,0,0,0,0,0-.2-.1c-.1-.1-.3-.2-.4-.3s-.2,0-.3,0c-.2,0-.5,0-.8.3s-.8.6-1.6,1.3v2.7h2.2c.1,0,.2,0,.3,0s0,.1,0,.2,0,.1,0,.2-.1,0-.3,0h-3.9c-.1,0-.2,0-.3,0s0-.1,0-.2,0-.1,0-.2.1,0,.3,0h1.2v-4.1h-.9c-.1,0-.2,0-.3,0s0-.1,0-.2,0-.1,0-.2.1,0,.3,0h1.4Z"/>
    <path class="st18" d="M317.9,545.9h-5c0,.6.4,1.1.8,1.5s1,.6,1.7.6.8,0,1.2-.2.7-.3,1-.5c0,0,.1,0,.2,0s.1,0,.2,0,0,.1,0,.2,0,.1,0,.2c-.2.2-.5.4-1,.5s-1,.3-1.5.3c-.8,0-1.5-.3-2.1-.8s-.8-1.2-.8-2,.3-1.3.8-1.8,1.2-.8,2-.8,1.5.3,2,.8.8,1.2.8,2ZM317.4,545.4c0-.5-.4-1-.8-1.3s-.9-.5-1.5-.5-1.1.2-1.5.5-.7.8-.8,1.3h4.5Z"/>
    <path class="st18" d="M331.1,548.4v-.7c-.7.6-1.5.9-2.3.9s-1.1-.1-1.4-.4-.5-.7-.5-1.1.2-.9.7-1.2,1.1-.5,1.9-.5.5,0,.7,0,.6,0,.9.1v-.8c0-.3-.1-.5-.4-.7s-.6-.3-1.1-.3-.9.1-1.6.3c-.1,0-.2,0-.2,0,0,0-.1,0-.2,0s0-.1,0-.2,0-.1,0-.2c0,0,.3-.1.7-.2.6-.2,1.1-.2,1.4-.2.6,0,1.1.2,1.5.5s.5.7.5,1v3.3h.7c.1,0,.2,0,.3,0s0,.1,0,.2,0,.1,0,.2-.1,0-.3,0h-1.2ZM331.1,545.9c-.2,0-.5-.1-.7-.1s-.5,0-.8,0c-.7,0-1.3.2-1.7.5-.3.2-.5.5-.5.8s.1.5.3.8.6.3,1,.3.8,0,1.2-.3.7-.4,1.1-.8v-1.1Z"/>
    <path class="st18" d="M335.2,543.3v.7c.3-.3.7-.6.9-.7s.6-.2.9-.2.7,0,1,.2c.2.1.4.3.6.6s.3.5.3.8v3.1h.4c.1,0,.2,0,.3,0s0,.1,0,.2,0,.1,0,.2-.1,0-.3,0h-1.3c-.1,0-.2,0-.3,0s0-.1,0-.2,0-.1,0-.2.1,0,.3,0h.4v-3c0-.3-.1-.6-.4-.9s-.6-.4-1-.4-.6,0-.8.2-.6.5-1,1v3.1h.6c.1,0,.2,0,.3,0s0,.1,0,.2,0,.1,0,.2-.1,0-.3,0h-1.6c-.1,0-.2,0-.3,0s0-.1,0-.2,0-.1,0-.2.1,0,.3,0h.6v-4.1h-.4c-.1,0-.2,0-.3,0s0-.1,0-.2,0-.1,0-.2.1,0,.3,0h.9Z"/>
    <path class="st18" d="M349.6,545.3v2.6h.9c.1,0,.2,0,.3,0s0,.1,0,.2,0,.1,0,.2-.1,0-.3,0h-2.1c-.1,0-.2,0-.3,0s0-.1,0-.2,0-.1,0-.2.1,0,.3,0h.7v-5.9h-.7c-.1,0-.2,0-.3,0s0-.1,0-.2,0-.1,0-.2.1,0,.3,0h3c.6,0,1.1.2,1.5.6s.6.8.6,1.3-.1.7-.4,1-.7.6-1.3.8c.4.2.7.5.9.8s.7.9,1.2,1.9h.4c.1,0,.2,0,.3,0s0,.1,0,.2,0,.1,0,.2-.1,0-.3,0h-.7c-.6-1.1-1.1-1.8-1.4-2.2s-.7-.7-1.2-.9h-1.6ZM349.6,544.8h1.3c.4,0,.8,0,1.2-.2s.6-.3.8-.6.2-.4.2-.6c0-.3-.2-.6-.5-.9s-.7-.4-1.2-.4h-1.8v2.8Z"/>
    <path class="st18" d="M363.8,543.3v.9c.3-.4.6-.6.9-.8s.7-.3,1.2-.3.9.1,1.3.3.7.5,1,.9.3.8.3,1.3c0,.7-.3,1.3-.8,1.8s-1.1.8-1.9.8-1.6-.4-2.1-1.1v3h1.2c.1,0,.2,0,.3,0s0,.1,0,.2,0,.1,0,.2-.1,0-.3,0h-2.3c-.1,0-.2,0-.3,0s0-.1,0-.2,0-.1,0-.2.1,0,.3,0h.7v-6.3h-.7c-.1,0-.2,0-.3,0s0-.1,0-.2,0-.1,0-.2.1,0,.3,0h1.2ZM368.1,545.7c0-.6-.2-1.1-.6-1.5s-.9-.6-1.5-.6-1.1.2-1.5.6-.6.9-.6,1.5.2,1.1.6,1.5.9.6,1.5.6,1.1-.2,1.5-.6.6-.9.6-1.5Z"/>
    <path class="st18" d="M372.3,543.3v1.2c.6-.6,1.1-1,1.4-1.1s.6-.2.9-.2.6,0,.8.3.4.3.4.4,0,.1,0,.2-.1,0-.2,0,0,0,0,0,0,0-.2-.1c-.1-.1-.3-.2-.4-.3s-.2,0-.3,0c-.2,0-.5,0-.8.3s-.8.6-1.6,1.3v2.7h2.2c.1,0,.2,0,.3,0s0,.1,0,.2,0,.1,0,.2-.1,0-.3,0h-3.9c-.1,0-.2,0-.3,0s0-.1,0-.2,0-.1,0-.2.1,0,.3,0h1.2v-4.1h-.9c-.1,0-.2,0-.3,0s0-.1,0-.2,0-.1,0-.2.1,0,.3,0h1.4Z"/>
    <path class="st18" d="M382.8,545.8c0,.8-.3,1.4-.8,1.9s-1.2.8-1.9.8-1.4-.3-2-.8-.8-1.2-.8-1.9.3-1.4.8-1.9,1.2-.8,2-.8,1.4.3,1.9.8.8,1.2.8,1.9ZM382.3,545.8c0-.6-.2-1.1-.7-1.6s-1-.7-1.6-.7-1.2.2-1.6.7-.7,1-.7,1.6.2,1.1.7,1.6,1,.7,1.6.7,1.2-.2,1.6-.7.7-1,.7-1.6Z"/>
    <path class="st18" d="M388.9,544.2v-.9h1.2c.1,0,.2,0,.3,0s0,.1,0,.2,0,.1,0,.2-.1,0-.3,0h-.7v4.9c0,.3,0,.6-.2.9s-.2.3-.5.5-.4.3-.6.4-.4.1-.7.1h-1.4c-.1,0-.2,0-.3,0s0-.1,0-.2,0-.1,0-.2.1,0,.3,0h1.4c.3,0,.5,0,.8-.2s.4-.4.6-.7c0-.2.1-.4.1-.6v-1.5c-.5.7-1.2,1.1-2,1.1s-1.3-.3-1.7-.8-.7-1.1-.7-1.8.2-1.3.7-1.8,1.1-.8,1.7-.8,1.5.4,2,1.1ZM388.9,545.7c0-.6-.2-1.1-.6-1.5s-.9-.6-1.4-.6-1,.2-1.4.6-.6.9-.6,1.5.2,1.1.6,1.5.9.6,1.4.6,1-.2,1.4-.6.6-.9.6-1.5Z"/>
    <path class="st18" d="M393.9,543.3v1.2c.6-.6,1.1-1,1.4-1.1s.6-.2.9-.2.6,0,.8.3.4.3.4.4,0,.1,0,.2-.1,0-.2,0,0,0,0,0,0,0-.2-.1c-.1-.1-.3-.2-.4-.3s-.2,0-.3,0c-.2,0-.5,0-.8.3s-.8.6-1.6,1.3v2.7h2.2c.1,0,.2,0,.3,0s0,.1,0,.2,0,.1,0,.2-.1,0-.3,0h-3.9c-.1,0-.2,0-.3,0s0-.1,0-.2,0-.1,0-.2.1,0,.3,0h1.2v-4.1h-.9c-.1,0-.2,0-.3,0s0-.1,0-.2,0-.1,0-.2.1,0,.3,0h1.4Z"/>
    <path class="st18" d="M403.1,548.4v-.7c-.7.6-1.5.9-2.3.9s-1.1-.1-1.4-.4-.5-.7-.5-1.1.2-.9.7-1.2,1.1-.5,1.9-.5.5,0,.7,0,.6,0,.9.1v-.8c0-.3-.1-.5-.4-.7s-.6-.3-1.1-.3-.9.1-1.6.3c-.1,0-.2,0-.2,0,0,0-.1,0-.2,0s0-.1,0-.2,0-.1,0-.2c0,0,.3-.1.7-.2.6-.2,1.1-.2,1.4-.2.6,0,1.1.2,1.5.5s.5.7.5,1v3.3h.7c.1,0,.2,0,.3,0s0,.1,0,.2,0,.1,0,.2-.1,0-.3,0h-1.2ZM403.1,545.9c-.2,0-.5-.1-.7-.1s-.5,0-.8,0c-.7,0-1.3.2-1.7.5-.3.2-.5.5-.5.8s.1.5.3.8.6.3,1,.3.8,0,1.2-.3.7-.4,1.1-.8v-1.1Z"/>
    <path class="st18" d="M406.6,543.3v.5c.4-.4.8-.7,1.3-.7s.5,0,.7.2.4.3.5.6c.2-.3.4-.5.7-.6s.5-.2.7-.2c.4,0,.6.1.8.3.3.3.4.6.4,1v3.4h.4c.1,0,.2,0,.3,0s0,.1,0,.2,0,.1,0,.2-.1,0-.3,0h-.9v-3.9c0-.2,0-.5-.2-.6s-.3-.2-.5-.2-.4,0-.6.2-.4.4-.7.8v3.3h.4c.1,0,.2,0,.3,0s0,.1,0,.2,0,.1,0,.2-.1,0-.3,0h-.9v-3.8c0-.3,0-.5-.2-.6s-.3-.3-.5-.3-.3,0-.5.2c-.2.2-.5.4-.8.8v3.3h.4c.1,0,.2,0,.3,0s0,.1,0,.2,0,.1,0,.2-.1,0-.3,0h-1.3c-.1,0-.2,0-.3,0s0-.1,0-.2,0-.1,0-.2.1,0,.3,0h.4v-4.1h-.4c-.1,0-.2,0-.3,0s0-.1,0-.2,0-.1,0-.2.1,0,.3,0h.9Z"/>
    <path class="st18" d="M413.8,543.3v.5c.4-.4.8-.7,1.3-.7s.5,0,.7.2.4.3.5.6c.2-.3.4-.5.7-.6s.5-.2.7-.2c.4,0,.6.1.8.3.3.3.4.6.4,1v3.4h.4c.1,0,.2,0,.3,0s0,.1,0,.2,0,.1,0,.2-.1,0-.3,0h-.9v-3.9c0-.2,0-.5-.2-.6s-.3-.2-.5-.2-.4,0-.6.2-.4.4-.7.8v3.3h.4c.1,0,.2,0,.3,0s0,.1,0,.2,0,.1,0,.2-.1,0-.3,0h-.9v-3.8c0-.3,0-.5-.2-.6s-.3-.3-.5-.3-.3,0-.5.2c-.2.2-.5.4-.8.8v3.3h.4c.1,0,.2,0,.3,0s0,.1,0,.2,0,.1,0,.2-.1,0-.3,0h-1.3c-.1,0-.2,0-.3,0s0-.1,0-.2,0-.1,0-.2.1,0,.3,0h.4v-4.1h-.4c-.1,0-.2,0-.3,0s0-.1,0-.2,0-.1,0-.2.1,0,.3,0h.9Z"/>
    <path class="st18" d="M423.5,543.3v4.6h1.9c.1,0,.2,0,.3,0s0,.1,0,.2,0,.1,0,.2-.1,0-.3,0h-4.4c-.1,0-.2,0-.3,0s0-.1,0-.2,0-.1,0-.2.1,0,.3,0h1.9v-4.1h-1.4c-.1,0-.2,0-.3,0s0-.1,0-.2,0-.1,0-.2.1,0,.3,0h1.9ZM423.5,540.8v1.3h-.7v-1.3h.7Z"/>
    <path class="st18" d="M428.9,543.3v.7c.3-.3.7-.6.9-.7s.6-.2.9-.2.7,0,1,.2c.2.1.4.3.6.6s.3.5.3.8v3.1h.4c.1,0,.2,0,.3,0s0,.1,0,.2,0,.1,0,.2-.1,0-.3,0h-1.3c-.1,0-.2,0-.3,0s0-.1,0-.2,0-.1,0-.2.1,0,.3,0h.4v-3c0-.3-.1-.6-.4-.9s-.6-.4-1-.4-.6,0-.8.2-.6.5-1,1v3.1h.6c.1,0,.2,0,.3,0s0,.1,0,.2,0,.1,0,.2-.1,0-.3,0h-1.6c-.1,0-.2,0-.3,0s0-.1,0-.2,0-.1,0-.2.1,0,.3,0h.6v-4.1h-.4c-.1,0-.2,0-.3,0s0-.1,0-.2,0-.1,0-.2.1,0,.3,0h.9Z"/>
    <path class="st18" d="M439.3,544.2v-.9h1.2c.1,0,.2,0,.3,0s0,.1,0,.2,0,.1,0,.2-.1,0-.3,0h-.7v4.9c0,.3,0,.6-.2.9s-.2.3-.5.5-.4.3-.6.4-.4.1-.7.1h-1.4c-.1,0-.2,0-.3,0s0-.1,0-.2,0-.1,0-.2.1,0,.3,0h1.4c.3,0,.5,0,.8-.2s.4-.4.6-.7c0-.2.1-.4.1-.6v-1.5c-.5.7-1.2,1.1-2,1.1s-1.3-.3-1.7-.8-.7-1.1-.7-1.8.2-1.3.7-1.8,1.1-.8,1.7-.8,1.5.4,2,1.1ZM439.3,545.7c0-.6-.2-1.1-.6-1.5s-.9-.6-1.4-.6-1,.2-1.4.6-.6.9-.6,1.5.2,1.1.6,1.5.9.6,1.4.6,1-.2,1.4-.6.6-.9.6-1.5Z"/>
    <path class="st18" d="M454.7,545.9h-5c0,.6.4,1.1.8,1.5s1,.6,1.7.6.8,0,1.2-.2.7-.3,1-.5c0,0,.1,0,.2,0s.1,0,.2,0,0,.1,0,.2,0,.1,0,.2c-.2.2-.5.4-1,.5s-1,.3-1.5.3c-.8,0-1.5-.3-2.1-.8s-.8-1.2-.8-2,.3-1.3.8-1.8,1.2-.8,2-.8,1.5.3,2,.8.8,1.2.8,2ZM454.2,545.4c0-.5-.4-1-.8-1.3s-.9-.5-1.5-.5-1.1.2-1.5.5-.7.8-.8,1.3h4.5Z"/>
    <path class="st18" d="M459.6,545.7l2.3,2.2c.1,0,.2,0,.3,0s0,0,.1,0,0,0,0,.1,0,.1,0,.2-.1,0-.3,0h-1.6c-.1,0-.2,0-.3,0s0-.1,0-.2,0-.1,0-.2.1,0,.3,0h.8l-1.9-1.8-1.9,1.8h.8c.1,0,.2,0,.3,0s0,.1,0,.2,0,.1,0,.2-.1,0-.3,0h-1.6c-.1,0-.2,0-.3,0s0-.1,0-.2,0,0,0-.1,0,0,0,0,.1,0,.3,0l2.3-2.2-2-1.9c-.1,0-.2,0-.3,0s0,0,0,0,0,0,0-.1,0-.1,0-.2.1,0,.3,0h1.3c.1,0,.2,0,.3,0s0,.1,0,.2,0,.1,0,.2-.1,0-.3,0h-.6l1.7,1.6,1.7-1.6h-.6c-.1,0-.2,0-.3,0s0-.1,0-.2,0-.1,0-.2.1,0,.3,0h1.3c.1,0,.2,0,.3,0s0,.1,0,.2,0,0,0,.1,0,0,0,0-.1,0-.3,0l-2,1.9Z"/>
    <path class="st18" d="M464.6,543.3v.9c.3-.4.6-.6.9-.8s.7-.3,1.2-.3.9.1,1.3.3.7.5,1,.9.3.8.3,1.3c0,.7-.3,1.3-.8,1.8s-1.1.8-1.9.8-1.6-.4-2.1-1.1v3h1.2c.1,0,.2,0,.3,0s0,.1,0,.2,0,.1,0,.2-.1,0-.3,0h-2.3c-.1,0-.2,0-.3,0s0-.1,0-.2,0-.1,0-.2.1,0,.3,0h.7v-6.3h-.7c-.1,0-.2,0-.3,0s0-.1,0-.2,0-.1,0-.2.1,0,.3,0h1.2ZM468.9,545.7c0-.6-.2-1.1-.6-1.5s-.9-.6-1.5-.6-1.1.2-1.5.6-.6.9-.6,1.5.2,1.1.6,1.5.9.6,1.5.6,1.1-.2,1.5-.6.6-.9.6-1.5Z"/>
    <path class="st18" d="M476.3,545.9h-5c0,.6.4,1.1.8,1.5s1,.6,1.7.6.8,0,1.2-.2.7-.3,1-.5c0,0,.1,0,.2,0s.1,0,.2,0,0,.1,0,.2,0,.1,0,.2c-.2.2-.5.4-1,.5s-1,.3-1.5.3c-.8,0-1.5-.3-2.1-.8s-.8-1.2-.8-2,.3-1.3.8-1.8,1.2-.8,2-.8,1.5.3,2,.8.8,1.2.8,2ZM475.8,545.4c0-.5-.4-1-.8-1.3s-.9-.5-1.5-.5-1.1.2-1.5.5-.7.8-.8,1.3h4.5Z"/>
    <path class="st18" d="M480.3,543.3v1.2c.6-.6,1.1-1,1.4-1.1s.6-.2.9-.2.6,0,.8.3.4.3.4.4,0,.1,0,.2-.1,0-.2,0,0,0,0,0,0,0-.2-.1c-.1-.1-.3-.2-.4-.3s-.2,0-.3,0c-.2,0-.5,0-.8.3s-.8.6-1.6,1.3v2.7h2.2c.1,0,.2,0,.3,0s0,.1,0,.2,0,.1,0,.2-.1,0-.3,0h-3.9c-.1,0-.2,0-.3,0s0-.1,0-.2,0-.1,0-.2.1,0,.3,0h1.2v-4.1h-.9c-.1,0-.2,0-.3,0s0-.1,0-.2,0-.1,0-.2.1,0,.3,0h1.4Z"/>
    <path class="st18" d="M487.1,543.3h2.7c.1,0,.2,0,.3,0s0,.1,0,.2,0,.1,0,.2-.1,0-.3,0h-2.7v3.3c0,.3.1.5.3.7s.6.3,1,.3.7,0,1.1-.1.7-.2.9-.3c0,0,.1,0,.2,0s.1,0,.2,0,0,.1,0,.2,0,.1,0,.2c-.1.1-.4.3-.9.4s-.9.2-1.4.2-1-.1-1.4-.4-.5-.6-.5-1.1v-3.3h-.9c-.1,0-.2,0-.3,0s0-.1,0-.2,0-.1,0-.2.1,0,.3,0h.9v-1.5c0-.1,0-.2,0-.3s.1,0,.2,0,.1,0,.2,0,0,.1,0,.3v1.5Z"/>
    <path class="st18" d="M504.1,543.6c0-.1,0-.2,0-.2s.1,0,.2,0,.1,0,.2,0,0,.1,0,.3v.8c0,.1,0,.2,0,.3s-.1,0-.2,0-.1,0-.2,0,0-.1,0-.2c0-.2-.1-.4-.4-.6-.3-.2-.7-.3-1.3-.3s-1,.1-1.3.3c-.2.2-.3.4-.3.6s.1.4.4.6c.2.1.5.2,1.1.3.7,0,1.2.2,1.4.3.4.1.7.3.8.6s.3.5.3.8c0,.4-.2.8-.6,1.1s-1,.5-1.8.5-1.4-.2-1.9-.6c0,.1,0,.2,0,.3s0,0,0,0,0,0-.1,0-.1,0-.2,0,0-.1,0-.3v-1c0-.1,0-.2,0-.3s.1,0,.2,0,.1,0,.2,0,0,.1,0,.2c0,.2,0,.3.1.5.1.2.4.3.7.5s.7.2,1.1.2c.6,0,1.1-.1,1.4-.4s.5-.5.5-.8-.2-.5-.5-.7c-.3-.2-.8-.3-1.4-.4s-1-.1-1.3-.2-.5-.3-.6-.5-.2-.4-.2-.7c0-.4.2-.8.6-1s.9-.4,1.5-.4,1.2.2,1.7.5Z"/>
    <path class="st18" d="M507.8,543.3v.9c.3-.4.6-.6.9-.8s.7-.3,1.2-.3.9.1,1.3.3.7.5,1,.9.3.8.3,1.3c0,.7-.3,1.3-.8,1.8s-1.1.8-1.9.8-1.6-.4-2.1-1.1v3h1.2c.1,0,.2,0,.3,0s0,.1,0,.2,0,.1,0,.2-.1,0-.3,0h-2.3c-.1,0-.2,0-.3,0s0-.1,0-.2,0-.1,0-.2.1,0,.3,0h.7v-6.3h-.7c-.1,0-.2,0-.3,0s0-.1,0-.2,0-.1,0-.2.1,0,.3,0h1.2ZM512.1,545.7c0-.6-.2-1.1-.6-1.5s-.9-.6-1.5-.6-1.1.2-1.5.6-.6.9-.6,1.5.2,1.1.6,1.5.9.6,1.5.6,1.1-.2,1.5-.6.6-.9.6-1.5Z"/>
    <path class="st18" d="M519.5,545.9h-5c0,.6.4,1.1.8,1.5s1,.6,1.7.6.8,0,1.2-.2.7-.3,1-.5c0,0,.1,0,.2,0s.1,0,.2,0,0,.1,0,.2,0,.1,0,.2c-.2.2-.5.4-1,.5s-1,.3-1.5.3c-.8,0-1.5-.3-2.1-.8s-.8-1.2-.8-2,.3-1.3.8-1.8,1.2-.8,2-.8,1.5.3,2,.8.8,1.2.8,2ZM519,545.4c0-.5-.4-1-.8-1.3s-.9-.5-1.5-.5-1.1.2-1.5.5-.7.8-.8,1.3h4.5Z"/>
    <path class="st18" d="M526.1,543.8v-.2c0-.1,0-.2,0-.3s.1,0,.2,0,.1,0,.2,0,0,.1,0,.3v1.1c0,.1,0,.2,0,.3s-.1,0-.2,0-.1,0-.2,0,0-.1,0-.2c0-.3-.2-.5-.5-.8s-.8-.4-1.4-.4-1.3.2-1.7.7-.6,1-.6,1.6.2,1.2.6,1.6,1,.6,1.6.6.8,0,1.2-.2.8-.4,1.1-.7c0,0,.2-.1.2-.1s.1,0,.2,0,0,.1,0,.2c0,.2-.2.4-.6.6-.6.4-1.3.6-2.1.6s-1.4-.3-2-.8-.8-1.1-.8-1.9.3-1.5.8-2,1.2-.8,2-.8,1.4.2,1.9.7Z"/>
    <path class="st18" d="M531.5,543.3v4.6h1.9c.1,0,.2,0,.3,0s0,.1,0,.2,0,.1,0,.2-.1,0-.3,0h-4.4c-.1,0-.2,0-.3,0s0-.1,0-.2,0-.1,0-.2.1,0,.3,0h1.9v-4.1h-1.4c-.1,0-.2,0-.3,0s0-.1,0-.2,0-.1,0-.2.1,0,.3,0h1.9ZM531.5,540.8v1.3h-.7v-1.3h.7Z"/>
    <path class="st18" d="M539.9,548.4v-.7c-.7.6-1.5.9-2.3.9s-1.1-.1-1.4-.4-.5-.7-.5-1.1.2-.9.7-1.2,1.1-.5,1.9-.5.5,0,.7,0,.6,0,.9.1v-.8c0-.3-.1-.5-.4-.7s-.6-.3-1.1-.3-.9.1-1.6.3c-.1,0-.2,0-.2,0,0,0-.1,0-.2,0s0-.1,0-.2,0-.1,0-.2c0,0,.3-.1.7-.2.6-.2,1.1-.2,1.4-.2.6,0,1.1.2,1.5.5s.5.7.5,1v3.3h.7c.1,0,.2,0,.3,0s0,.1,0,.2,0,.1,0,.2-.1,0-.3,0h-1.2ZM539.9,545.9c-.2,0-.5-.1-.7-.1s-.5,0-.8,0c-.7,0-1.3.2-1.7.5-.3.2-.5.5-.5.8s.1.5.3.8.6.3,1,.3.8,0,1.2-.3.7-.4,1.1-.8v-1.1Z"/>
    <path class="st18" d="M545.9,541v6.9h1.9c.1,0,.2,0,.3,0s0,.1,0,.2,0,.1,0,.2-.1,0-.3,0h-4.4c-.1,0-.2,0-.3,0s0-.1,0-.2,0-.1,0-.2.1,0,.3,0h1.9v-6.4h-1.4c-.1,0-.2,0-.3,0s0-.1,0-.2,0-.1,0-.2.1,0,.3,0h1.9Z"/>
    <path class="st18" d="M553.1,543.3v4.6h1.9c.1,0,.2,0,.3,0s0,.1,0,.2,0,.1,0,.2-.1,0-.3,0h-4.4c-.1,0-.2,0-.3,0s0-.1,0-.2,0-.1,0-.2.1,0,.3,0h1.9v-4.1h-1.4c-.1,0-.2,0-.3,0s0-.1,0-.2,0-.1,0-.2.1,0,.3,0h1.9ZM553.1,540.8v1.3h-.7v-1.3h.7Z"/>
    <path class="st18" d="M562.2,543.3v.4l-3.7,4.1h3.3v-.7c0-.1,0-.2,0-.3s.1,0,.2,0,.1,0,.2,0,0,.1,0,.3v1.2h-4.5v-.4l3.7-4.1h-3.1v.7c0,.1,0,.2,0,.3s-.1,0-.2,0-.1,0-.2,0,0-.1,0-.3v-1.2h4.3Z"/>
    <path class="st18" d="M569.9,545.9h-5c0,.6.4,1.1.8,1.5s1,.6,1.7.6.8,0,1.2-.2.7-.3,1-.5c0,0,.1,0,.2,0s.1,0,.2,0,0,.1,0,.2,0,.1,0,.2c-.2.2-.5.4-1,.5s-1,.3-1.5.3c-.8,0-1.5-.3-2.1-.8s-.8-1.2-.8-2,.3-1.3.8-1.8,1.2-.8,2-.8,1.5.3,2,.8.8,1.2.8,2ZM569.4,545.4c0-.5-.4-1-.8-1.3s-.9-.5-1.5-.5-1.1.2-1.5.5-.7.8-.8,1.3h4.5Z"/>
    <path class="st18" d="M576.9,541v6.9h.7c.1,0,.2,0,.3,0s0,.1,0,.2,0,.1,0,.2-.1,0-.3,0h-1.2v-1c-.6.8-1.3,1.2-2.2,1.2s-.9-.1-1.3-.4-.7-.6-1-1-.4-.9-.4-1.4.1-.9.4-1.4.6-.8,1-1,.8-.4,1.3-.4c.9,0,1.6.4,2.2,1.2v-2.8h-.7c-.1,0-.2,0-.3,0s0-.1,0-.2,0-.1,0-.2.1,0,.3,0h1.2ZM576.4,545.8c0-.6-.2-1.2-.6-1.6s-.9-.6-1.5-.6-1.1.2-1.5.6-.6,1-.6,1.6.2,1.1.6,1.6.9.6,1.5.6,1.1-.2,1.5-.6.6-1,.6-1.6Z"/>
    <path class="st18" d="M589.1,543.3v4.6h1.9c.1,0,.2,0,.3,0s0,.1,0,.2,0,.1,0,.2-.1,0-.3,0h-4.4c-.1,0-.2,0-.3,0s0-.1,0-.2,0-.1,0-.2.1,0,.3,0h1.9v-4.1h-1.4c-.1,0-.2,0-.3,0s0-.1,0-.2,0-.1,0-.2.1,0,.3,0h1.9ZM589.1,540.8v1.3h-.7v-1.3h.7Z"/>
    <path class="st18" d="M594.5,543.3v.7c.3-.3.7-.6.9-.7s.6-.2.9-.2.7,0,1,.2c.2.1.4.3.6.6s.3.5.3.8v3.1h.4c.1,0,.2,0,.3,0s0,.1,0,.2,0,.1,0,.2-.1,0-.3,0h-1.3c-.1,0-.2,0-.3,0s0-.1,0-.2,0-.1,0-.2.1,0,.3,0h.4v-3c0-.3-.1-.6-.4-.9s-.6-.4-1-.4-.6,0-.8.2-.6.5-1,1v3.1h.6c.1,0,.2,0,.3,0s0,.1,0,.2,0,.1,0,.2-.1,0-.3,0h-1.6c-.1,0-.2,0-.3,0s0-.1,0-.2,0-.1,0-.2.1,0,.3,0h.6v-4.1h-.4c-.1,0-.2,0-.3,0s0-.1,0-.2,0-.1,0-.2.1,0,.3,0h.9Z"/>
    <path class="st18" d="M603.2,546.9h.2c.2,0,.4,0,.6.2s.2.3.2.6,0,.4-.2.6-.3.2-.6.2h-.2c-.2,0-.4,0-.6-.2s-.2-.3-.2-.6,0-.4.2-.6.3-.2.6-.2Z"/>
    <path class="st18" d="M610.4,546.9h.2c.2,0,.4,0,.6.2s.2.3.2.6,0,.4-.2.6-.3.2-.6.2h-.2c-.2,0-.4,0-.6-.2s-.2-.3-.2-.6,0-.4.2-.6.3-.2.6-.2Z"/>
    <path class="st18" d="M617.6,546.9h.2c.2,0,.4,0,.6.2s.2.3.2.6,0,.4-.2.6-.3.2-.6.2h-.2c-.2,0-.4,0-.6-.2s-.2-.3-.2-.6,0-.4.2-.6.3-.2.6-.2Z"/>
    <path class="st18" d="M622.8,541.1h1.6l-.4,2.8c0,.1,0,.3-.1.3s-.1,0-.2,0-.2,0-.2,0-.1-.2-.1-.3l-.4-2.8ZM625.4,541.1h1.6l-.4,2.8c0,.1,0,.3-.1.3s-.1,0-.2,0-.2,0-.2,0-.1-.2-.1-.3l-.4-2.8Z"/>
    <path class="st18" d="M632.2,545.4c0,.4,0,.9-.2,1.4s-.3,1.1-.7,1.7-.6,1.1-.7,1.2c0,0,0,0-.2,0s-.1,0-.2,0,0-.1,0-.2,0,0,0-.1c.4-.8.7-1.5.9-2.1s.3-1.3.3-1.9,0-1.3-.3-1.9-.5-1.4-.9-2.1c0,0,0,0,0-.1,0,0,0-.1,0-.2s.1,0,.2,0,.1,0,.2,0c.1.1.4.5.7,1.2s.6,1.2.7,1.7.2,1,.2,1.5Z"/>
  </g>
  <g>
    <rect class="st7" x="710" y="198.8" width="130.4" height="120" rx="8" ry="8"/>
    <text class="st0" transform="translate(755.8 218.8)"><tspan x="0" y="0">Tips</tspan></text>
    <text class="st5" transform="translate(720 238.8)"><tspan x="0" y="0">• Be specific</tspan></text>
    <text class="st5" transform="translate(720 258.8)"><tspan x="0" y="0">• Use clear language</tspan></text>
    <text class="st5" transform="translate(720 278.8)"><tspan x="0" y="0">• Specify constraints</tspan></text>
    <text class="st5" transform="translate(720 298.8)"><tspan x="0" y="0">• Add examples if needed</tspan></text>
  </g>
</svg>